<svg xmlns="http://www.w3.org/2000/svg" width="3840" height="2400" viewBox="0 0 3840 2400" role="img" aria-labelledby="title description">
  <title id="title">Voronoi diagram with 14 sites</title>
  <desc id="description">A high-resolution 3840x2400 clipped Voronoi diagram with 14 sites. Seed: 1789593220.</desc>
  <defs>
    <linearGradient id="background" x1="0" y1="0" x2="1" y2="1"><stop stop-color="#F8FAFC"/><stop offset="1" stop-color="#E0F2FE"/></linearGradient>
    <filter id="shadow" x="-5%" y="-5%" width="110%" height="110%"><feDropShadow dx="0" dy="15" stdDeviation="22" flood-color="#0F172A" flood-opacity=".12"/></filter>
  </defs>
  <rect width="3840" height="2400" fill="url(#background)"/>
  <rect x="120" y="120" width="3600" height="2160" rx="63" fill="#FFFFFF" filter="url(#shadow)"/>
  <g font-family="Arial, sans-serif"><text x="227" y="296" font-size="101" font-weight="700" fill="#0F172A">Voronoi Diagram</text><text x="227" y="397" font-size="56" fill="#475569">14 sites · generated with seed 1789593220 · Ultra HD (3840x2400)</text></g>
  <g stroke="#FFFFFF" stroke-width="7" stroke-linejoin="round">
    <polygon points="120.0,1964.2 120.0,922.4 603.2,913.6 215.3,1861.8" fill="#38BDF8" fill-opacity="0.65" />
    <polygon points="2434.0,1585.9 2896.2,1447.3 2900.1,1447.7 3184.6,2053.0 2208.7,2053.0" fill="#A78BFA" fill-opacity="0.65" />
    <polygon points="1166.6,1276.5 215.3,1861.8 603.2,913.6 728.2,811.0" fill="#F472B6" fill-opacity="0.65" />
    <polygon points="1252.4,1292.4 1420.4,1264.6 1790.7,2053.0 1088.1,2053.0" fill="#FB923C" fill-opacity="0.65" />
    <polygon points="3233.4,1109.7 3127.2,505.0 3720.0,505.0 3720.0,1110.5" fill="#FACC15" fill-opacity="0.65" />
    <polygon points="728.2,811.0 603.2,913.6 120.0,922.4 120.0,505.0 745.1,505.0" fill="#4ADE80" fill-opacity="0.65" />
    <polygon points="120.0,1964.2 215.3,1861.8 1166.6,1276.5 1252.4,1292.4 1088.1,2053.0 120.0,2053.0" fill="#2DD4BF" fill-opacity="0.65" />
    <polygon points="1420.4,1264.6 1556.4,1125.8 2145.3,1180.2 2434.0,1585.9 2208.7,2053.0 1790.7,2053.0" fill="#60A5FA" fill-opacity="0.65" />
    <polygon points="3233.4,1109.7 2907.8,1443.9 2900.1,1447.7 2896.2,1447.3 2603.9,505.0 3127.2,505.0" fill="#E879F9" fill-opacity="0.65" />
    <polygon points="2900.1,1447.7 2907.8,1443.9 3720.0,1632.5 3720.0,2053.0 3184.6,2053.0" fill="#34D399" fill-opacity="0.65" />
    <polygon points="2145.3,1180.2 1556.4,1125.8 1552.4,505.0 2422.0,505.0" fill="#F87171" fill-opacity="0.65" />
    <polygon points="2907.8,1443.9 3233.4,1109.7 3720.0,1110.5 3720.0,1632.5" fill="#818CF8" fill-opacity="0.65" />
    <polygon points="2896.2,1447.3 2434.0,1585.9 2145.3,1180.2 2422.0,505.0 2603.9,505.0" fill="#FBBF24" fill-opacity="0.65" />
    <polygon points="1556.4,1125.8 1420.4,1264.6 1252.4,1292.4 1166.6,1276.5 728.2,811.0 745.1,505.0 1552.4,505.0" fill="#A3E635" fill-opacity="0.65" />
  </g>
  <g>
    <circle cx="308.6" cy="1079.8" r="24" fill="#0F172A" stroke="#FFFFFF" stroke-width="7" />
    <circle cx="2828.4" cy="1973.4" r="24" fill="#0F172A" stroke="#FFFFFF" stroke-width="7" />
    <circle cx="696.8" cy="1238.6" r="24" fill="#0F172A" stroke="#FFFFFF" stroke-width="7" />
    <circle cx="1319.0" cy="1784.3" r="24" fill="#0F172A" stroke="#FFFFFF" stroke-width="7" />
    <circle cx="3431.3" cy="836.2" r="24" fill="#0F172A" stroke="#FFFFFF" stroke-width="7" />
    <circle cx="302.7" cy="758.2" r="24" fill="#0F172A" stroke="#FFFFFF" stroke-width="7" />
    <circle cx="988.7" cy="1713.0" r="24" fill="#0F172A" stroke="#FFFFFF" stroke-width="7" />
    <circle cx="1885.2" cy="1518.4" r="24" fill="#0F172A" stroke="#FFFFFF" stroke-width="7" />
    <circle cx="2954.1" cy="919.9" r="24" fill="#0F172A" stroke="#FFFFFF" stroke-width="7" />
    <circle cx="3350.5" cy="1728.0" r="24" fill="#0F172A" stroke="#FFFFFF" stroke-width="7" />
    <circle cx="1951.6" cy="800.1" r="24" fill="#0F172A" stroke="#FFFFFF" stroke-width="7" />
    <circle cx="3430.4" cy="1383.9" r="24" fill="#0F172A" stroke="#FFFFFF" stroke-width="7" />
    <circle cx="2550.0" cy="1045.3" r="24" fill="#0F172A" stroke="#FFFFFF" stroke-width="7" />
    <circle cx="1157.0" cy="805.2" r="24" fill="#0F172A" stroke="#FFFFFF" stroke-width="7" />
  </g>
  <g font-family="Arial, sans-serif" font-size="47" fill="#64748B"><text x="227" y="2205">Each region contains all points closest to its dark site marker.</text><text x="3083" y="2205">sites: 14</text></g>
</svg>
