<svg xmlns="http://www.w3.org/2000/svg" width="1200" height="760" viewBox="0 0 1200 760" role="img" aria-labelledby="title description">
  <title id="title">Voronoi diagram with 4 sites</title>
  <desc id="description">A clipped Voronoi diagram with 4 randomly generated sites. Seed: 1789150884.</desc>
  <defs>
    <linearGradient id="background" x1="0" y1="0" x2="1" y2="1"><stop stop-color="#F8FAFC"/><stop offset="1" stop-color="#E0F2FE"/></linearGradient>
    <filter id="shadow" x="-10%" y="-10%" width="120%" height="120%"><feDropShadow dx="0" dy="5" stdDeviation="7" flood-color="#0F172A" flood-opacity=".12"/></filter>
  </defs>
  <rect width="1200" height="760" fill="url(#background)"/>
  <rect x="38" y="38" width="1124" height="684" rx="20" fill="#FFFFFF" filter="url(#shadow)"/>
  <g font-family="Arial, sans-serif"><text x="72" y="94" font-size="32" font-weight="700" fill="#0F172A">Voronoi Diagram</text><text x="72" y="126" font-size="18" fill="#475569">4 sites · generated with seed 1789150884</text></g>
  <g stroke="#FFFFFF" stroke-width="3" stroke-linejoin="round">
    <polygon points="800.6,311.9 882.9,160.0 1162.0,160.0 1162.0,650.0 733.8,650.0" fill="#38BDF8" fill-opacity="0.60" />
    <polygon points="338.2,296.8 800.6,311.9 733.8,650.0 463.5,650.0" fill="#A78BFA" fill-opacity="0.60" />
    <polygon points="38.0,160.0 231.2,160.0 338.2,296.8 463.5,650.0 38.0,650.0" fill="#F472B6" fill-opacity="0.60" />
    <polygon points="338.2,296.8 231.2,160.0 882.9,160.0 800.6,311.9" fill="#FB923C" fill-opacity="0.60" />
  </g>
  <g>
    <circle cx="998.9" cy="465.5" r="8" fill="#0F172A" stroke="#FFFFFF" stroke-width="3" />
    <circle cx="558.8" cy="378.6" r="8" fill="#0F172A" stroke="#FFFFFF" stroke-width="3" />
    <circle cx="218.5" cy="499.4" r="8" fill="#0F172A" stroke="#FFFFFF" stroke-width="3" />
    <circle cx="563.6" cy="229.6" r="8" fill="#0F172A" stroke="#FFFFFF" stroke-width="3" />
  </g>
  <g font-family="Arial, sans-serif" font-size="15" fill="#64748B"><text x="72" y="698">Each region contains all points closest to its dark site marker.</text><text x="998" y="698">sites: 04</text></g>
</svg>
