<svg xmlns="http://www.w3.org/2000/svg" width="3840" height="2400" viewBox="0 0 3840 2400" role="img" aria-labelledby="title description">
  <title id="title">Voronoi diagram with 75 sites</title>
  <desc id="description">A high-resolution 3840x2400 clipped Voronoi diagram with 75 sites. Seed: 1790221353.</desc>
  <defs>
    <linearGradient id="background" x1="0" y1="0" x2="1" y2="1"><stop stop-color="#F8FAFC"/><stop offset="1" stop-color="#E0F2FE"/></linearGradient>
    <filter id="shadow" x="-5%" y="-5%" width="110%" height="110%"><feDropShadow dx="0" dy="15" stdDeviation="22" flood-color="#0F172A" flood-opacity=".12"/></filter>
  </defs>
  <rect width="3840" height="2400" fill="url(#background)"/>
  <rect x="120" y="120" width="3600" height="2160" rx="63" fill="#FFFFFF" filter="url(#shadow)"/>
  <g font-family="Arial, sans-serif"><text x="227" y="296" font-size="101" font-weight="700" fill="#0F172A">Voronoi Diagram</text><text x="227" y="397" font-size="56" fill="#475569">75 sites · generated with seed 1790221353 · Ultra HD (3840x2400)</text></g>
  <g stroke="#FFFFFF" stroke-width="7" stroke-linejoin="round">
    <polygon points="1227.3,725.9 1161.2,825.6 1115.1,778.9 998.0,505.0 1223.3,505.0" fill="#38BDF8" fill-opacity="0.65" />
    <polygon points="440.2,1310.6 441.9,1408.5 326.5,1622.5 120.0,1668.8 120.0,1287.2 400.2,1292.7" fill="#A78BFA" fill-opacity="0.65" />
    <polygon points="3005.9,839.7 2892.9,897.4 2739.5,771.7 2789.8,505.0 2904.6,505.0" fill="#F472B6" fill-opacity="0.65" />
    <polygon points="1533.6,546.1 1227.3,725.9 1223.3,505.0 1536.0,505.0" fill="#FB923C" fill-opacity="0.65" />
    <polygon points="942.7,1960.1 948.6,1953.7 1247.9,1833.7 1374.0,2035.9 1375.9,2053.0 935.9,2053.0" fill="#FACC15" fill-opacity="0.65" />
    <polygon points="664.4,865.1 646.2,910.8 507.5,995.1 233.1,908.3 169.8,858.6 400.7,734.7" fill="#4ADE80" fill-opacity="0.65" />
    <polygon points="973.9,1597.3 750.5,1608.2 846.3,1259.5 889.8,1248.7 1095.5,1351.3" fill="#2DD4BF" fill-opacity="0.65" />
    <polygon points="996.4,989.5 1161.7,883.9 1277.5,1104.2 1222.6,1325.0 1185.4,1361.6 1095.5,1351.3 889.8,1248.7" fill="#60A5FA" fill-opacity="0.65" />
    <polygon points="1584.2,1079.4 1463.2,1310.8 1222.6,1325.0 1277.5,1104.2" fill="#E879F9" fill-opacity="0.65" />
    <polygon points="2407.2,1802.2 2486.2,1723.7 2694.3,1733.4 2636.7,2053.0 2460.0,2053.0" fill="#34D399" fill-opacity="0.65" />
    <polygon points="3505.3,1508.5 3363.5,1337.3 3423.5,1261.6 3720.0,1286.5 3720.0,1336.7" fill="#F87171" fill-opacity="0.65" />
    <polygon points="727.0,1684.9 744.0,1615.5 750.5,1608.2 973.9,1597.3 1066.1,1696.5 948.6,1953.7 942.7,1960.1" fill="#818CF8" fill-opacity="0.65" />
    <polygon points="2563.9,1158.7 2693.7,1134.1 2953.5,1244.0 2950.4,1318.2 2765.7,1454.9 2736.2,1454.4 2600.0,1345.5 2553.6,1249.7" fill="#FBBF24" fill-opacity="0.65" />
    <polygon points="1992.0,1831.8 2149.5,1668.4 2241.0,1764.9 2114.7,2053.0 2023.9,2053.0" fill="#A3E635" fill-opacity="0.65" />
    <polygon points="2384.8,788.8 1995.6,868.2 1973.7,818.1 2207.5,505.0 2370.1,505.0" fill="#C084FC" fill-opacity="0.65" />
    <polygon points="400.7,734.7 169.8,858.6 120.0,850.8 120.0,505.0 508.1,505.0" fill="#FB7185" fill-opacity="0.65" />
    <polygon points="3091.5,1696.2 2901.2,1793.0 2695.1,1733.0 2736.2,1454.4 2765.7,1454.9 3109.5,1664.9" fill="#22D3EE" fill-opacity="0.65" />
    <polygon points="793.8,1239.2 489.7,1275.4 507.5,995.1 646.2,910.8" fill="#86EFAC" fill-opacity="0.65" />
    <polygon points="3162.9,1509.9 3145.5,1637.4 3109.5,1664.9 2765.7,1454.9 2950.4,1318.2" fill="#FCD34D" fill-opacity="0.65" />
    <polygon points="3423.5,1261.6 3417.2,1233.6 3516.3,969.0 3720.0,755.7 3720.0,1286.5" fill="#38BDF8" fill-opacity="0.65" />
    <polygon points="519.7,1787.1 727.0,1684.9 942.7,1960.1 935.9,2053.0 470.1,2053.0" fill="#38BDF8" fill-opacity="0.65" />
    <polygon points="1066.1,1696.5 1253.1,1627.1 1287.9,1689.6 1247.9,1833.7 948.6,1953.7" fill="#A78BFA" fill-opacity="0.65" />
    <polygon points="3427.6,1877.8 3720.0,1781.8 3720.0,2053.0 3371.8,2053.0" fill="#F472B6" fill-opacity="0.65" />
    <polygon points="3427.6,1877.8 3259.7,1668.9 3494.4,1600.6 3720.0,1757.3 3720.0,1781.8" fill="#FB923C" fill-opacity="0.65" />
    <polygon points="2882.1,1000.1 3083.1,1122.2 2953.5,1244.0 2693.7,1134.1" fill="#FACC15" fill-opacity="0.65" />
    <polygon points="1559.3,861.6 1603.6,1066.6 1584.2,1079.4 1277.5,1104.2 1161.7,883.9 1168.2,866.3" fill="#4ADE80" fill-opacity="0.65" />
    <polygon points="3494.4,1600.6 3259.7,1668.9 3145.5,1637.4 3162.9,1509.9 3234.6,1391.0 3363.5,1337.3 3505.3,1508.5" fill="#2DD4BF" fill-opacity="0.65" />
    <polygon points="1603.6,1066.6 1646.4,1086.5 1699.1,1263.3 1595.7,1461.2 1578.6,1461.0 1463.2,1310.8 1584.2,1079.4" fill="#60A5FA" fill-opacity="0.65" />
    <polygon points="3516.3,969.0 3417.2,1233.6 3246.8,1063.5" fill="#E879F9" fill-opacity="0.65" />
    <polygon points="3232.8,793.3 3172.2,869.7 3005.9,839.7 2904.6,505.0 2911.9,505.0" fill="#34D399" fill-opacity="0.65" />
    <polygon points="2221.1,1476.9 2254.9,1405.1 2553.6,1249.7 2600.0,1345.5 2470.5,1611.4" fill="#F87171" fill-opacity="0.65" />
    <polygon points="1636.2,1787.1 1739.6,1720.4 1793.9,1733.4 1819.5,1763.5 1846.7,2053.0 1639.4,2053.0" fill="#818CF8" fill-opacity="0.65" />
    <polygon points="1697.1,1520.5 1787.6,1472.3 2037.8,1537.7 2042.4,1542.6 1793.9,1733.4 1739.6,1720.4" fill="#FBBF24" fill-opacity="0.65" />
    <polygon points="3091.5,1696.2 3109.5,1664.9 3145.5,1637.4 3259.7,1668.9 3427.6,1877.8 3371.8,2053.0 3172.8,2053.0" fill="#A3E635" fill-opacity="0.65" />
    <polygon points="825.2,726.5 990.8,505.0 998.0,505.0 1115.1,778.9" fill="#C084FC" fill-opacity="0.65" />
    <polygon points="1168.2,866.3 1161.7,883.9 996.4,989.5 717.0,817.2 733.2,760.7 825.2,726.5 1115.1,778.9 1161.2,825.6" fill="#FB7185" fill-opacity="0.65" />
    <polygon points="3494.4,1600.6 3505.3,1508.5 3720.0,1336.7 3720.0,1757.3" fill="#22D3EE" fill-opacity="0.65" />
    <polygon points="1603.7,760.7 1559.3,861.6 1168.2,866.3 1161.2,825.6 1227.3,725.9 1533.6,546.1" fill="#86EFAC" fill-opacity="0.65" />
    <polygon points="1825.3,1329.6 1787.6,1472.3 1697.1,1520.5 1595.7,1461.2 1699.1,1263.3" fill="#FCD34D" fill-opacity="0.65" />
    <polygon points="169.8,858.6 233.1,908.3 400.2,1292.7 120.0,1287.2 120.0,850.8" fill="#38BDF8" fill-opacity="0.65" />
    <polygon points="1950.8,1278.6 2037.8,1537.7 1787.6,1472.3 1825.3,1329.6" fill="#38BDF8" fill-opacity="0.65" />
    <polygon points="1185.4,1361.6 1263.6,1548.4 1253.1,1627.1 1066.1,1696.5 973.9,1597.3 1095.5,1351.3" fill="#A78BFA" fill-opacity="0.65" />
    <polygon points="2470.5,1611.4 2600.0,1345.5 2736.2,1454.4 2695.1,1733.0 2694.3,1733.4 2486.2,1723.7" fill="#F472B6" fill-opacity="0.65" />
    <polygon points="2241.0,1764.9 2149.5,1668.4 2121.5,1567.8 2221.1,1476.9 2470.5,1611.4 2486.2,1723.7 2407.2,1802.2" fill="#FB923C" fill-opacity="0.65" />
    <polygon points="3174.5,1043.0 3246.8,1063.5 3417.2,1233.6 3423.5,1261.6 3363.5,1337.3 3234.6,1391.0 3106.1,1118.1" fill="#FACC15" fill-opacity="0.65" />
    <polygon points="744.0,1615.5 441.9,1408.5 440.2,1310.6 489.7,1275.4 793.8,1239.2 846.3,1259.5 750.5,1608.2" fill="#4ADE80" fill-opacity="0.65" />
    <polygon points="1894.3,758.7 1603.7,760.7 1533.6,546.1 1536.0,505.0 1878.4,505.0" fill="#2DD4BF" fill-opacity="0.65" />
    <polygon points="1973.7,818.1 1894.3,758.7 1878.4,505.0 2207.5,505.0" fill="#60A5FA" fill-opacity="0.65" />
    <polygon points="3083.1,1122.2 3106.1,1118.1 3234.6,1391.0 3162.9,1509.9 2950.4,1318.2 2953.5,1244.0" fill="#E879F9" fill-opacity="0.65" />
    <polygon points="489.7,1275.4 440.2,1310.6 400.2,1292.7 233.1,908.3 507.5,995.1" fill="#34D399" fill-opacity="0.65" />
    <polygon points="2492.6,970.4 2491.3,1032.9 2062.5,1106.4 2026.1,1094.8 1988.5,1044.6 1995.6,868.2 2384.8,788.8" fill="#F87171" fill-opacity="0.65" />
    <polygon points="733.2,760.7 717.0,817.2 664.4,865.1 400.7,734.7 508.1,505.0 634.8,505.0" fill="#818CF8" fill-opacity="0.65" />
    <polygon points="2241.0,1764.9 2407.2,1802.2 2460.0,2053.0 2114.7,2053.0" fill="#FBBF24" fill-opacity="0.65" />
    <polygon points="1374.0,2035.9 1247.9,1833.7 1287.9,1689.6 1474.8,1763.3" fill="#A3E635" fill-opacity="0.65" />
    <polygon points="1988.5,1044.6 2026.1,1094.8 1950.8,1278.6 1825.3,1329.6 1699.1,1263.3 1646.4,1086.5" fill="#C084FC" fill-opacity="0.65" />
    <polygon points="1578.6,1461.0 1516.7,1514.3 1263.6,1548.4 1185.4,1361.6 1222.6,1325.0 1463.2,1310.8" fill="#FB7185" fill-opacity="0.65" />
    <polygon points="519.7,1787.1 326.5,1622.5 441.9,1408.5 744.0,1615.5 727.0,1684.9" fill="#22D3EE" fill-opacity="0.65" />
    <polygon points="717.0,817.2 996.4,989.5 889.8,1248.7 846.3,1259.5 793.8,1239.2 646.2,910.8 664.4,865.1" fill="#86EFAC" fill-opacity="0.65" />
    <polygon points="2694.3,1733.4 2695.1,1733.0 2901.2,1793.0 2846.3,2053.0 2636.7,2053.0" fill="#FCD34D" fill-opacity="0.65" />
    <polygon points="2492.6,970.4 2384.8,788.8 2370.1,505.0 2789.8,505.0 2739.5,771.7" fill="#38BDF8" fill-opacity="0.65" />
    <polygon points="1819.5,1763.5 1992.0,1831.8 2023.9,2053.0 1846.7,2053.0" fill="#38BDF8" fill-opacity="0.65" />
    <polygon points="1697.1,1520.5 1739.6,1720.4 1636.2,1787.1 1512.5,1753.9 1516.7,1514.3 1578.6,1461.0 1595.7,1461.2" fill="#A78BFA" fill-opacity="0.65" />
    <polygon points="1516.7,1514.3 1512.5,1753.9 1474.8,1763.3 1287.9,1689.6 1253.1,1627.1 1263.6,1548.4" fill="#F472B6" fill-opacity="0.65" />
    <polygon points="2901.2,1793.0 3091.5,1696.2 3172.8,2053.0 2846.3,2053.0" fill="#FB923C" fill-opacity="0.65" />
    <polygon points="1894.3,758.7 1973.7,818.1 1995.6,868.2 1988.5,1044.6 1646.4,1086.5 1603.6,1066.6 1559.3,861.6 1603.7,760.7" fill="#FACC15" fill-opacity="0.65" />
    <polygon points="2062.5,1106.4 2491.3,1032.9 2563.9,1158.7 2553.6,1249.7 2254.9,1405.1" fill="#4ADE80" fill-opacity="0.65" />
    <polygon points="120.0,1668.8 326.5,1622.5 519.7,1787.1 470.1,2053.0 120.0,2053.0" fill="#2DD4BF" fill-opacity="0.65" />
    <polygon points="3172.2,869.7 3174.5,1043.0 3106.1,1118.1 3083.1,1122.2 2882.1,1000.1 2892.9,897.4 3005.9,839.7" fill="#60A5FA" fill-opacity="0.65" />
    <polygon points="3232.8,793.3 2911.9,505.0 3720.0,505.0 3720.0,513.4" fill="#E879F9" fill-opacity="0.65" />
    <polygon points="825.2,726.5 733.2,760.7 634.8,505.0 990.8,505.0" fill="#34D399" fill-opacity="0.65" />
    <polygon points="1374.0,2035.9 1474.8,1763.3 1512.5,1753.9 1636.2,1787.1 1639.4,2053.0 1375.9,2053.0" fill="#F87171" fill-opacity="0.65" />
    <polygon points="3516.3,969.0 3246.8,1063.5 3174.5,1043.0 3172.2,869.7 3232.8,793.3 3720.0,513.4 3720.0,755.7" fill="#818CF8" fill-opacity="0.65" />
    <polygon points="2121.5,1567.8 2042.4,1542.6 2037.8,1537.7 1950.8,1278.6 2026.1,1094.8 2062.5,1106.4 2254.9,1405.1 2221.1,1476.9" fill="#FBBF24" fill-opacity="0.65" />
    <polygon points="1819.5,1763.5 1793.9,1733.4 2042.4,1542.6 2121.5,1567.8 2149.5,1668.4 1992.0,1831.8" fill="#A3E635" fill-opacity="0.65" />
    <polygon points="2882.1,1000.1 2693.7,1134.1 2563.9,1158.7 2491.3,1032.9 2492.6,970.4 2739.5,771.7 2892.9,897.4" fill="#C084FC" fill-opacity="0.65" />
  </g>
  <g>
    <circle cx="1156.1" cy="586.5" r="18" fill="#0F172A" stroke="#FFFFFF" stroke-width="7" />
    <circle cx="239.6" cy="1433.7" r="18" fill="#0F172A" stroke="#FFFFFF" stroke-width="7" />
    <circle cx="2907.1" cy="768.2" r="18" fill="#0F172A" stroke="#FFFFFF" stroke-width="7" />
    <circle cx="1293.4" cy="584.0" r="18" fill="#0F172A" stroke="#FFFFFF" stroke-width="7" />
    <circle cx="1209.5" cy="1935.3" r="18" fill="#0F172A" stroke="#FFFFFF" stroke-width="7" />
    <circle cx="466.4" cy="863.7" r="18" fill="#0F172A" stroke="#FFFFFF" stroke-width="7" />
    <circle cx="934.0" cy="1505.9" r="18" fill="#0F172A" stroke="#FFFFFF" stroke-width="7" />
    <circle cx="1121.8" cy="1129.3" r="18" fill="#0F172A" stroke="#FFFFFF" stroke-width="7" />
    <circle cx="1403.4" cy="1199.3" r="18" fill="#0F172A" stroke="#FFFFFF" stroke-width="7" />
    <circle cx="2584.9" cy="1869.1" r="18" fill="#0F172A" stroke="#FFFFFF" stroke-width="7" />
    <circle cx="3514.9" cy="1396.7" r="18" fill="#0F172A" stroke="#FFFFFF" stroke-width="7" />
    <circle cx="943.1" cy="1692.2" r="18" fill="#0F172A" stroke="#FFFFFF" stroke-width="7" />
    <circle cx="2836.2" cy="1290.1" r="18" fill="#0F172A" stroke="#FFFFFF" stroke-width="7" />
    <circle cx="2095.1" cy="1857.8" r="18" fill="#0F172A" stroke="#FFFFFF" stroke-width="7" />
    <circle cx="2177.5" cy="728.6" r="18" fill="#0F172A" stroke="#FFFFFF" stroke-width="7" />
    <circle cx="329.5" cy="608.7" r="18" fill="#0F172A" stroke="#FFFFFF" stroke-width="7" />
    <circle cx="2830.0" cy="1622.3" r="18" fill="#0F172A" stroke="#FFFFFF" stroke-width="7" />
    <circle cx="605.3" cy="1092.1" r="18" fill="#0F172A" stroke="#FFFFFF" stroke-width="7" />
    <circle cx="2943.9" cy="1435.7" r="18" fill="#0F172A" stroke="#FFFFFF" stroke-width="7" />
    <circle cx="3536.1" cy="1143.7" r="18" fill="#0F172A" stroke="#FFFFFF" stroke-width="7" />
    <circle cx="682.5" cy="1896.5" r="18" fill="#0F172A" stroke="#FFFFFF" stroke-width="7" />
    <circle cx="1150.0" cy="1786.7" r="18" fill="#0F172A" stroke="#FFFFFF" stroke-width="7" />
    <circle cx="3538.3" cy="1965.2" r="18" fill="#0F172A" stroke="#FFFFFF" stroke-width="7" />
    <circle cx="3465.0" cy="1741.9" r="18" fill="#0F172A" stroke="#FFFFFF" stroke-width="7" />
    <circle cx="2904.9" cy="1127.7" r="18" fill="#0F172A" stroke="#FFFFFF" stroke-width="7" />
    <circle cx="1386.5" cy="990.1" r="18" fill="#0F172A" stroke="#FFFFFF" stroke-width="7" />
    <circle cx="3393.7" cy="1497.1" r="18" fill="#0F172A" stroke="#FFFFFF" stroke-width="7" />
    <circle cx="1588.9" cy="1296.3" r="18" fill="#0F172A" stroke="#FFFFFF" stroke-width="7" />
    <circle cx="3386.7" cy="1087.7" r="18" fill="#0F172A" stroke="#FFFFFF" stroke-width="7" />
    <circle cx="3048.5" cy="725.4" r="18" fill="#0F172A" stroke="#FFFFFF" stroke-width="7" />
    <circle cx="2410.2" cy="1496.6" r="18" fill="#0F172A" stroke="#FFFFFF" stroke-width="7" />
    <circle cx="1762.7" cy="1898.8" r="18" fill="#0F172A" stroke="#FFFFFF" stroke-width="7" />
    <circle cx="1841.0" cy="1571.7" r="18" fill="#0F172A" stroke="#FFFFFF" stroke-width="7" />
    <circle cx="3286.9" cy="1885.1" r="18" fill="#0F172A" stroke="#FFFFFF" stroke-width="7" />
    <circle cx="947.8" cy="675.6" r="18" fill="#0F172A" stroke="#FFFFFF" stroke-width="7" />
    <circle cx="922.2" cy="817.1" r="18" fill="#0F172A" stroke="#FFFFFF" stroke-width="7" />
    <circle cx="3616.5" cy="1523.7" r="18" fill="#0F172A" stroke="#FFFFFF" stroke-width="7" />
    <circle cx="1383.4" cy="737.3" r="18" fill="#0F172A" stroke="#FFFFFF" stroke-width="7" />
    <circle cx="1734.8" cy="1372.6" r="18" fill="#0F172A" stroke="#FFFFFF" stroke-width="7" />
    <circle cx="245.3" cy="1145.5" r="18" fill="#0F172A" stroke="#FFFFFF" stroke-width="7" />
    <circle cx="1882.8" cy="1411.7" r="18" fill="#0F172A" stroke="#FFFFFF" stroke-width="7" />
    <circle cx="1070.7" cy="1573.4" r="18" fill="#0F172A" stroke="#FFFFFF" stroke-width="7" />
    <circle cx="2597.9" cy="1588.1" r="18" fill="#0F172A" stroke="#FFFFFF" stroke-width="7" />
    <circle cx="2341.5" cy="1624.1" r="18" fill="#0F172A" stroke="#FFFFFF" stroke-width="7" />
    <circle cx="3271.3" cy="1203.3" r="18" fill="#0F172A" stroke="#FFFFFF" stroke-width="7" />
    <circle cx="645.1" cy="1426.4" r="18" fill="#0F172A" stroke="#FFFFFF" stroke-width="7" />
    <circle cx="1767.7" cy="611.8" r="18" fill="#0F172A" stroke="#FFFFFF" stroke-width="7" />
    <circle cx="2001.6" cy="597.3" r="18" fill="#0F172A" stroke="#FFFFFF" stroke-width="7" />
    <circle cx="3066.6" cy="1299.7" r="18" fill="#0F172A" stroke="#FFFFFF" stroke-width="7" />
    <circle cx="398.2" cy="1079.0" r="18" fill="#0F172A" stroke="#FFFFFF" stroke-width="7" />
    <circle cx="2217.7" cy="925.3" r="18" fill="#0F172A" stroke="#FFFFFF" stroke-width="7" />
    <circle cx="543.0" cy="708.6" r="18" fill="#0F172A" stroke="#FFFFFF" stroke-width="7" />
    <circle cx="2271.6" cy="1935.1" r="18" fill="#0F172A" stroke="#FFFFFF" stroke-width="7" />
    <circle cx="1356.0" cy="1844.0" r="18" fill="#0F172A" stroke="#FFFFFF" stroke-width="7" />
    <circle cx="1809.3" cy="1230.7" r="18" fill="#0F172A" stroke="#FFFFFF" stroke-width="7" />
    <circle cx="1416.8" cy="1428.6" r="18" fill="#0F172A" stroke="#FFFFFF" stroke-width="7" />
    <circle cx="532.0" cy="1591.5" r="18" fill="#0F172A" stroke="#FFFFFF" stroke-width="7" />
    <circle cx="809.0" cy="1000.6" r="18" fill="#0F172A" stroke="#FFFFFF" stroke-width="7" />
    <circle cx="2749.5" cy="1898.8" r="18" fill="#0F172A" stroke="#FFFFFF" stroke-width="7" />
    <circle cx="2584.8" cy="707.5" r="18" fill="#0F172A" stroke="#FFFFFF" stroke-width="7" />
    <circle cx="1900.4" cy="1885.9" r="18" fill="#0F172A" stroke="#FFFFFF" stroke-width="7" />
    <circle cx="1586.4" cy="1625.8" r="18" fill="#0F172A" stroke="#FFFFFF" stroke-width="7" />
    <circle cx="1443.1" cy="1623.3" r="18" fill="#0F172A" stroke="#FFFFFF" stroke-width="7" />
    <circle cx="2997.2" cy="1951.1" r="18" fill="#0F172A" stroke="#FFFFFF" stroke-width="7" />
    <circle cx="1769.7" cy="907.3" r="18" fill="#0F172A" stroke="#FFFFFF" stroke-width="7" />
    <circle cx="2269.1" cy="1225.4" r="18" fill="#0F172A" stroke="#FFFFFF" stroke-width="7" />
    <circle cx="328.5" cy="1830.4" r="18" fill="#0F172A" stroke="#FFFFFF" stroke-width="7" />
    <circle cx="3005.8" cy="961.6" r="18" fill="#0F172A" stroke="#FFFFFF" stroke-width="7" />
    <circle cx="3145.6" cy="617.3" r="18" fill="#0F172A" stroke="#FFFFFF" stroke-width="7" />
    <circle cx="839.3" cy="594.6" r="18" fill="#0F172A" stroke="#FFFFFF" stroke-width="7" />
    <circle cx="1512.5" cy="1901.8" r="18" fill="#0F172A" stroke="#FFFFFF" stroke-width="7" />
    <circle cx="3341.0" cy="957.3" r="18" fill="#0F172A" stroke="#FFFFFF" stroke-width="7" />
    <circle cx="2085.3" cy="1343.7" r="18" fill="#0F172A" stroke="#FFFFFF" stroke-width="7" />
    <circle cx="1962.2" cy="1729.7" r="18" fill="#0F172A" stroke="#FFFFFF" stroke-width="7" />
    <circle cx="2769.1" cy="936.7" r="18" fill="#0F172A" stroke="#FFFFFF" stroke-width="7" />
  </g>
  <g font-family="Arial, sans-serif" font-size="47" fill="#64748B"><text x="227" y="2205">Each region contains all points closest to its dark site marker.</text><text x="3083" y="2205">sites: 75</text></g>
</svg>
