<svg xmlns="http://www.w3.org/2000/svg" width="3840" height="2400" viewBox="0 0 3840 2400" role="img" aria-labelledby="title description">
  <title id="title">Voronoi diagram with 22 sites</title>
  <desc id="description">A high-resolution 3840x2400 clipped Voronoi diagram with 22 sites. Seed: 1789615603.</desc>
  <defs>
    <linearGradient id="background" x1="0" y1="0" x2="1" y2="1"><stop stop-color="#F8FAFC"/><stop offset="1" stop-color="#E0F2FE"/></linearGradient>
    <filter id="shadow" x="-5%" y="-5%" width="110%" height="110%"><feDropShadow dx="0" dy="15" stdDeviation="22" flood-color="#0F172A" flood-opacity=".12"/></filter>
  </defs>
  <rect width="3840" height="2400" fill="url(#background)"/>
  <rect x="120" y="120" width="3600" height="2160" rx="63" fill="#FFFFFF" filter="url(#shadow)"/>
  <g font-family="Arial, sans-serif"><text x="227" y="296" font-size="101" font-weight="700" fill="#0F172A">Voronoi Diagram</text><text x="227" y="397" font-size="56" fill="#475569">22 sites · generated with seed 1789615603 · Ultra HD (3840x2400)</text></g>
  <g stroke="#FFFFFF" stroke-width="7" stroke-linejoin="round">
    <polygon points="120.0,1436.8 550.4,1363.9 668.4,1455.9 556.3,2053.0 120.0,2053.0" fill="#38BDF8" fill-opacity="0.65" />
    <polygon points="2048.5,1383.8 1645.7,1395.8 1601.2,1308.4 1666.0,1024.6 1702.2,993.2 2116.0,1081.9" fill="#A78BFA" fill-opacity="0.65" />
    <polygon points="668.4,1455.9 864.8,1452.4 1010.9,1544.0 929.9,2053.0 556.3,2053.0" fill="#F472B6" fill-opacity="0.65" />
    <polygon points="3236.1,1288.4 2593.5,1184.1 2794.9,695.8 3047.8,854.5" fill="#FB923C" fill-opacity="0.65" />
    <polygon points="3047.8,854.5 2794.9,695.8 2709.8,505.0 3632.6,505.0" fill="#FACC15" fill-opacity="0.65" />
    <polygon points="2128.7,1616.4 2029.5,1743.1 1525.0,1740.8 1645.7,1395.8 2048.5,1383.8" fill="#4ADE80" fill-opacity="0.65" />
    <polygon points="2147.1,1055.8 2116.0,1081.9 1702.2,993.2 1626.6,505.0 2238.6,505.0" fill="#2DD4BF" fill-opacity="0.65" />
    <polygon points="2723.8,1828.5 2569.2,1671.9 2590.7,1186.2 2593.5,1184.1 3236.1,1288.4 3330.0,1381.8" fill="#60A5FA" fill-opacity="0.65" />
    <polygon points="1480.9,1772.0 1525.0,1740.8 2029.5,1743.1 2040.9,2053.0 1421.7,2053.0" fill="#E879F9" fill-opacity="0.65" />
    <polygon points="1305.0,1271.9 1195.5,1539.8 1010.9,1544.0 864.8,1452.4 1099.4,911.0 1207.1,1004.5" fill="#34D399" fill-opacity="0.65" />
    <polygon points="3406.9,1393.0 3330.0,1381.8 3236.1,1288.4 3047.8,854.5 3632.6,505.0 3720.0,505.0 3720.0,1331.2" fill="#F87171" fill-opacity="0.65" />
    <polygon points="550.4,1363.9 120.0,1436.8 120.0,505.0 621.4,505.0" fill="#818CF8" fill-opacity="0.65" />
    <polygon points="2723.8,1828.5 3330.0,1381.8 3406.9,1393.0 3337.9,2053.0 2736.1,2053.0" fill="#FBBF24" fill-opacity="0.65" />
    <polygon points="3406.9,1393.0 3720.0,1331.2 3720.0,2053.0 3337.9,2053.0" fill="#A3E635" fill-opacity="0.65" />
    <polygon points="1010.9,1544.0 1195.5,1539.8 1480.9,1772.0 1421.7,2053.0 929.9,2053.0" fill="#C084FC" fill-opacity="0.65" />
    <polygon points="2029.5,1743.1 2128.7,1616.4 2569.2,1671.9 2723.8,1828.5 2736.1,2053.0 2040.9,2053.0" fill="#FB7185" fill-opacity="0.65" />
    <polygon points="1702.2,993.2 1666.0,1024.6 1207.1,1004.5 1099.4,911.0 922.5,505.0 1626.6,505.0" fill="#22D3EE" fill-opacity="0.65" />
    <polygon points="2128.7,1616.4 2048.5,1383.8 2116.0,1081.9 2147.1,1055.8 2590.7,1186.2 2569.2,1671.9" fill="#86EFAC" fill-opacity="0.65" />
    <polygon points="1305.0,1271.9 1207.1,1004.5 1666.0,1024.6 1601.2,1308.4" fill="#FCD34D" fill-opacity="0.65" />
    <polygon points="1099.4,911.0 864.8,1452.4 668.4,1455.9 550.4,1363.9 621.4,505.0 922.5,505.0" fill="#38BDF8" fill-opacity="0.65" />
    <polygon points="1480.9,1772.0 1195.5,1539.8 1305.0,1271.9 1601.2,1308.4 1645.7,1395.8 1525.0,1740.8" fill="#38BDF8" fill-opacity="0.65" />
    <polygon points="2794.9,695.8 2593.5,1184.1 2590.7,1186.2 2147.1,1055.8 2238.6,505.0 2709.8,505.0" fill="#A78BFA" fill-opacity="0.65" />
  </g>
  <g>
    <circle cx="416.6" cy="1670.4" r="23" fill="#0F172A" stroke="#FFFFFF" stroke-width="7" />
    <circle cx="1790.5" cy="1235.2" r="23" fill="#0F172A" stroke="#FFFFFF" stroke-width="7" />
    <circle cx="825.2" cy="1747.1" r="23" fill="#0F172A" stroke="#FFFFFF" stroke-width="7" />
    <circle cx="2870.5" cy="1069.5" r="23" fill="#0F172A" stroke="#FFFFFF" stroke-width="7" />
    <circle cx="3164.3" cy="601.4" r="23" fill="#0F172A" stroke="#FFFFFF" stroke-width="7" />
    <circle cx="1799.8" cy="1547.5" r="23" fill="#0F172A" stroke="#FFFFFF" stroke-width="7" />
    <circle cx="1881.9" cy="808.7" r="23" fill="#0F172A" stroke="#FFFFFF" stroke-width="7" />
    <circle cx="2820.0" cy="1380.4" r="23" fill="#0F172A" stroke="#FFFFFF" stroke-width="7" />
    <circle cx="1798.0" cy="1936.6" r="23" fill="#0F172A" stroke="#FFFFFF" stroke-width="7" />
    <circle cx="1112.8" cy="1288.4" r="23" fill="#0F172A" stroke="#FFFFFF" stroke-width="7" />
    <circle cx="3326.0" cy="871.8" r="23" fill="#0F172A" stroke="#FFFFFF" stroke-width="7" />
    <circle cx="323.1" cy="1118.6" r="23" fill="#0F172A" stroke="#FFFFFF" stroke-width="7" />
    <circle cx="3180.2" cy="1869.2" r="23" fill="#0F172A" stroke="#FFFFFF" stroke-width="7" />
    <circle cx="3530.1" cy="1905.9" r="23" fill="#0F172A" stroke="#FFFFFF" stroke-width="7" />
    <circle cx="1124.4" cy="1794.7" r="23" fill="#0F172A" stroke="#FFFFFF" stroke-width="7" />
    <circle cx="2274.6" cy="1919.1" r="23" fill="#0F172A" stroke="#FFFFFF" stroke-width="7" />
    <circle cx="1475.0" cy="871.7" r="23" fill="#0F172A" stroke="#FFFFFF" stroke-width="7" />
    <circle cx="2345.1" cy="1359.4" r="23" fill="#0F172A" stroke="#FFFFFF" stroke-width="7" />
    <circle cx="1462.4" cy="1160.3" r="23" fill="#0F172A" stroke="#FFFFFF" stroke-width="7" />
    <circle cx="814.9" cy="1159.3" r="23" fill="#0F172A" stroke="#FFFFFF" stroke-width="7" />
    <circle cx="1430.6" cy="1418.3" r="23" fill="#0F172A" stroke="#FFFFFF" stroke-width="7" />
    <circle cx="2477.9" cy="907.6" r="23" fill="#0F172A" stroke="#FFFFFF" stroke-width="7" />
  </g>
  <g font-family="Arial, sans-serif" font-size="47" fill="#64748B"><text x="227" y="2205">Each region contains all points closest to its dark site marker.</text><text x="3083" y="2205">sites: 22</text></g>
</svg>
