<svg xmlns="http://www.w3.org/2000/svg" width="3840" height="2400" viewBox="0 0 3840 2400" role="img" aria-labelledby="title description">
  <title id="title">Voronoi diagram with 82 sites</title>
  <desc id="description">A high-resolution 3840x2400 clipped Voronoi diagram with 82 sites. Seed: 1790586518.</desc>
  <defs>
    <linearGradient id="background" x1="0" y1="0" x2="1" y2="1"><stop stop-color="#F8FAFC"/><stop offset="1" stop-color="#E0F2FE"/></linearGradient>
    <filter id="shadow" x="-5%" y="-5%" width="110%" height="110%"><feDropShadow dx="0" dy="15" stdDeviation="22" flood-color="#0F172A" flood-opacity=".12"/></filter>
  </defs>
  <rect width="3840" height="2400" fill="url(#background)"/>
  <rect x="120" y="120" width="3600" height="2160" rx="63" fill="#FFFFFF" filter="url(#shadow)"/>
  <g font-family="Arial, sans-serif"><text x="227" y="296" font-size="101" font-weight="700" fill="#0F172A">Voronoi Diagram</text><text x="227" y="397" font-size="56" fill="#475569">82 sites · generated with seed 1790586518 · Ultra HD (3840x2400)</text></g>
  <g stroke="#FFFFFF" stroke-width="7" stroke-linejoin="round">
    <polygon points="3359.6,888.4 3328.9,985.9 3238.6,989.3 2937.2,838.7 3170.0,728.1 3313.7,754.7" fill="#38BDF8" fill-opacity="0.65" />
    <polygon points="3146.9,1267.3 3059.1,1476.4 2941.5,1306.8 3048.4,1175.3" fill="#A78BFA" fill-opacity="0.65" />
    <polygon points="1853.7,753.5 1918.3,613.9 2157.9,757.8 2142.8,930.5 1988.6,985.4 1923.5,947.0" fill="#F472B6" fill-opacity="0.65" />
    <polygon points="2173.6,1866.0 2336.9,1882.6 2369.2,2053.0 2127.2,2053.0" fill="#FB923C" fill-opacity="0.65" />
    <polygon points="1414.7,718.9 1171.6,762.0 1171.1,761.2 1165.0,505.0 1465.4,505.0" fill="#FACC15" fill-opacity="0.65" />
    <polygon points="2139.9,1606.3 2378.4,1428.5 2429.4,1483.3 2302.4,1694.7 2137.5,1655.5" fill="#4ADE80" fill-opacity="0.65" />
    <polygon points="1114.0,992.2 1040.9,1271.7 982.1,1307.5 784.3,1254.3 708.9,1131.8 736.8,1006.0 749.5,995.3" fill="#2DD4BF" fill-opacity="0.65" />
    <polygon points="2908.0,1598.5 3059.3,1521.8 3325.2,1613.6 3294.3,1781.1 2848.9,1891.9 2891.4,1623.8" fill="#60A5FA" fill-opacity="0.65" />
    <polygon points="547.6,1701.2 549.2,1804.9 120.0,1871.9 120.0,1779.9 356.6,1657.2" fill="#E879F9" fill-opacity="0.65" />
    <polygon points="1793.3,1624.9 2098.3,1699.3 2093.2,1755.1 1868.7,1986.5" fill="#34D399" fill-opacity="0.65" />
    <polygon points="1213.5,1767.6 1411.5,1628.5 1583.9,1759.2 1567.1,2053.0 1252.8,2053.0" fill="#F87171" fill-opacity="0.65" />
    <polygon points="842.7,1634.7 592.4,1635.6 549.1,1495.8 750.4,1382.4" fill="#818CF8" fill-opacity="0.65" />
    <polygon points="2543.2,1752.5 2545.1,1534.6 2571.6,1521.0 2891.4,1623.8 2848.9,1891.9 2798.5,1970.6" fill="#FBBF24" fill-opacity="0.65" />
    <polygon points="1370.1,1035.7 1635.4,961.2 1686.1,1013.2 1666.2,1147.0 1656.8,1159.9 1591.4,1195.4" fill="#A3E635" fill-opacity="0.65" />
    <polygon points="2055.3,1415.3 2137.3,1308.9 2286.2,1276.8 2353.0,1349.9 2378.4,1428.5 2139.9,1606.3" fill="#C084FC" fill-opacity="0.65" />
    <polygon points="1977.4,1110.5 1886.5,1195.9 1666.2,1147.0 1686.1,1013.2 1923.5,947.0 1988.6,985.4" fill="#FB7185" fill-opacity="0.65" />
    <polygon points="3046.8,1170.1 2947.1,1084.7 2922.8,838.4 2937.2,838.7 3238.6,989.3" fill="#22D3EE" fill-opacity="0.65" />
    <polygon points="789.2,1968.6 890.3,1665.6 891.9,1665.2 1161.4,1724.4 1213.5,1767.6 1252.8,2053.0 810.1,2053.0" fill="#86EFAC" fill-opacity="0.65" />
    <polygon points="2875.1,805.0 2653.9,851.3 2560.8,816.6 2412.6,505.0 2915.0,505.0" fill="#FCD34D" fill-opacity="0.65" />
    <polygon points="1788.1,1619.3 1583.9,1759.2 1411.5,1628.5 1438.8,1504.9 1546.5,1438.2 1773.8,1503.4" fill="#38BDF8" fill-opacity="0.65" />
    <polygon points="120.0,1871.9 549.2,1804.9 560.0,1824.7 411.8,2053.0 120.0,2053.0" fill="#38BDF8" fill-opacity="0.65" />
    <polygon points="2798.5,1970.6 2848.9,1891.9 3294.3,1781.1 3404.2,2053.0 2794.1,2053.0" fill="#A78BFA" fill-opacity="0.65" />
    <polygon points="3590.0,1767.6 3720.0,1752.6 3720.0,2053.0 3504.7,2053.0" fill="#F472B6" fill-opacity="0.65" />
    <polygon points="334.0,1097.0 431.1,1154.8 391.7,1373.5 120.0,1201.6 120.0,1117.8" fill="#FB923C" fill-opacity="0.65" />
    <polygon points="1169.0,1491.8 1271.9,1393.1 1438.8,1504.9 1411.5,1628.5 1213.5,1767.6 1161.4,1724.4" fill="#FACC15" fill-opacity="0.65" />
    <polygon points="3313.7,754.7 3170.0,728.1 3125.7,505.0 3421.1,505.0" fill="#4ADE80" fill-opacity="0.65" />
    <polygon points="750.4,1382.4 549.1,1495.8 453.4,1430.4 688.2,1139.9 708.9,1131.8 784.3,1254.3" fill="#2DD4BF" fill-opacity="0.65" />
    <polygon points="494.9,716.3 340.6,718.2 155.6,505.0 651.6,505.0" fill="#60A5FA" fill-opacity="0.65" />
    <polygon points="3359.6,888.4 3313.7,754.7 3421.1,505.0 3720.0,505.0 3720.0,781.1" fill="#E879F9" fill-opacity="0.65" />
    <polygon points="560.0,1824.7 789.2,1968.6 810.1,2053.0 411.8,2053.0" fill="#34D399" fill-opacity="0.65" />
    <polygon points="3354.1,1031.8 3328.9,985.9 3359.6,888.4 3720.0,781.1 3720.0,1207.0" fill="#F87171" fill-opacity="0.65" />
    <polygon points="1823.0,1442.1 1773.8,1503.4 1546.5,1438.2 1536.0,1292.1 1591.4,1195.4 1656.8,1159.9" fill="#818CF8" fill-opacity="0.65" />
    <polygon points="1254.3,1319.2 1271.9,1393.1 1169.0,1491.8 1007.8,1433.2 982.1,1307.5 1040.9,1271.7" fill="#FBBF24" fill-opacity="0.65" />
    <polygon points="688.2,1139.9 453.4,1430.4 417.0,1426.5 391.7,1373.5 431.1,1154.8" fill="#A3E635" fill-opacity="0.65" />
    <polygon points="573.3,904.1 412.6,948.3 302.5,831.2 340.6,718.2 494.9,716.3" fill="#C084FC" fill-opacity="0.65" />
    <polygon points="3461.2,1615.6 3410.7,1588.1 3720.0,1283.0 3720.0,1640.9" fill="#FB7185" fill-opacity="0.65" />
    <polygon points="2157.9,757.8 1918.3,613.9 1911.3,505.0 2377.9,505.0" fill="#22D3EE" fill-opacity="0.65" />
    <polygon points="1638.3,758.3 1614.0,505.0 1911.3,505.0 1918.3,613.9 1853.7,753.5" fill="#86EFAC" fill-opacity="0.65" />
    <polygon points="1868.7,1986.5 2093.2,1755.1 2173.6,1866.0 2127.2,2053.0 1850.5,2053.0" fill="#FCD34D" fill-opacity="0.65" />
    <polygon points="1305.8,1030.3 1311.4,1217.6 1254.3,1319.2 1040.9,1271.7 1114.0,992.2 1178.3,955.1" fill="#38BDF8" fill-opacity="0.65" />
    <polygon points="2767.8,1314.9 2720.2,1281.5 2706.2,1241.3 2947.1,1084.7 3046.8,1170.1 3048.4,1175.3 2941.5,1306.8" fill="#38BDF8" fill-opacity="0.65" />
    <polygon points="3268.4,1263.8 3308.8,1315.9 3341.0,1601.1 3325.2,1613.6 3059.3,1521.8 3059.1,1476.4 3146.9,1267.3" fill="#A78BFA" fill-opacity="0.65" />
    <polygon points="391.7,1373.5 417.0,1426.5 412.7,1430.4 120.0,1515.0 120.0,1201.6" fill="#F472B6" fill-opacity="0.65" />
    <polygon points="2336.9,1882.6 2386.7,1784.4 2543.2,1752.5 2798.5,1970.6 2794.1,2053.0 2369.2,2053.0" fill="#FB923C" fill-opacity="0.65" />
    <polygon points="3059.3,1521.8 2908.0,1598.5 2767.8,1314.9 2941.5,1306.8 3059.1,1476.4" fill="#FACC15" fill-opacity="0.65" />
    <polygon points="1007.8,1433.2 891.9,1665.2 890.3,1665.6 842.7,1634.7 750.4,1382.4 784.3,1254.3 982.1,1307.5" fill="#4ADE80" fill-opacity="0.65" />
    <polygon points="302.5,831.2 412.6,948.3 334.0,1097.0 120.0,1117.8 120.0,948.2" fill="#2DD4BF" fill-opacity="0.65" />
    <polygon points="1536.0,1292.1 1546.5,1438.2 1438.8,1504.9 1271.9,1393.1 1254.3,1319.2 1311.4,1217.6" fill="#60A5FA" fill-opacity="0.65" />
    <polygon points="3590.0,1767.6 3461.2,1615.6 3720.0,1640.9 3720.0,1752.6" fill="#E879F9" fill-opacity="0.65" />
    <polygon points="2199.7,957.0 2302.0,1211.5 2286.2,1276.8 2137.3,1308.9 1977.4,1110.5 1988.6,985.4 2142.8,930.5" fill="#34D399" fill-opacity="0.65" />
    <polygon points="1007.8,1433.2 1169.0,1491.8 1161.4,1724.4 891.9,1665.2" fill="#F87171" fill-opacity="0.65" />
    <polygon points="825.5,722.1 749.5,995.3 736.8,1006.0 573.3,904.1 494.9,716.3 651.6,505.0 750.2,505.0" fill="#818CF8" fill-opacity="0.65" />
    <polygon points="1178.3,955.1 1114.0,992.2 749.5,995.3 825.5,722.1 1171.1,761.2 1171.6,762.0" fill="#FBBF24" fill-opacity="0.65" />
    <polygon points="2438.9,1122.8 2678.2,1212.4 2681.7,1219.3 2353.0,1349.9 2286.2,1276.8 2302.0,1211.5" fill="#A3E635" fill-opacity="0.65" />
    <polygon points="340.6,718.2 302.5,831.2 120.0,948.2 120.0,505.0 155.6,505.0" fill="#C084FC" fill-opacity="0.65" />
    <polygon points="1583.9,1759.2 1788.1,1619.3 1793.3,1624.9 1868.7,1986.5 1850.5,2053.0 1567.1,2053.0" fill="#FB7185" fill-opacity="0.65" />
    <polygon points="1504.7,793.2 1320.3,1027.4 1305.8,1030.3 1178.3,955.1 1171.6,762.0 1414.7,718.9" fill="#22D3EE" fill-opacity="0.65" />
    <polygon points="2908.0,1598.5 2891.4,1623.8 2571.6,1521.0 2720.2,1281.5 2767.8,1314.9" fill="#86EFAC" fill-opacity="0.65" />
    <polygon points="3354.1,1031.8 3268.4,1263.8 3146.9,1267.3 3048.4,1175.3 3046.8,1170.1 3238.6,989.3 3328.9,985.9" fill="#FCD34D" fill-opacity="0.65" />
    <polygon points="2386.7,1784.4 2336.9,1882.6 2173.6,1866.0 2093.2,1755.1 2098.3,1699.3 2137.5,1655.5 2302.4,1694.7" fill="#38BDF8" fill-opacity="0.65" />
    <polygon points="2678.2,1212.4 2438.9,1122.8 2480.9,882.8 2560.8,816.6 2653.9,851.3" fill="#38BDF8" fill-opacity="0.65" />
    <polygon points="2681.7,1219.3 2706.2,1241.3 2720.2,1281.5 2571.6,1521.0 2545.1,1534.6 2429.4,1483.3 2378.4,1428.5 2353.0,1349.9" fill="#A78BFA" fill-opacity="0.65" />
    <polygon points="825.5,722.1 750.2,505.0 1165.0,505.0 1171.1,761.2" fill="#F472B6" fill-opacity="0.65" />
    <polygon points="1638.3,758.3 1600.5,800.9 1504.7,793.2 1414.7,718.9 1465.4,505.0 1614.0,505.0" fill="#FB923C" fill-opacity="0.65" />
    <polygon points="2706.2,1241.3 2681.7,1219.3 2678.2,1212.4 2653.9,851.3 2875.1,805.0 2922.8,838.4 2947.1,1084.7" fill="#FACC15" fill-opacity="0.65" />
    <polygon points="3294.3,1781.1 3325.2,1613.6 3341.0,1601.1 3410.7,1588.1 3461.2,1615.6 3590.0,1767.6 3504.7,2053.0 3404.2,2053.0" fill="#4ADE80" fill-opacity="0.65" />
    <polygon points="2137.3,1308.9 2055.3,1415.3 1845.9,1427.4 1886.5,1195.9 1977.4,1110.5" fill="#2DD4BF" fill-opacity="0.65" />
    <polygon points="3308.8,1315.9 3268.4,1263.8 3354.1,1031.8 3720.0,1207.0 3720.0,1231.7" fill="#60A5FA" fill-opacity="0.65" />
    <polygon points="412.7,1430.4 356.6,1657.2 120.0,1779.9 120.0,1515.0" fill="#E879F9" fill-opacity="0.65" />
    <polygon points="1311.4,1217.6 1305.8,1030.3 1320.3,1027.4 1370.1,1035.7 1591.4,1195.4 1536.0,1292.1" fill="#34D399" fill-opacity="0.65" />
    <polygon points="2545.1,1534.6 2543.2,1752.5 2386.7,1784.4 2302.4,1694.7 2429.4,1483.3" fill="#F87171" fill-opacity="0.65" />
    <polygon points="3410.7,1588.1 3341.0,1601.1 3308.8,1315.9 3720.0,1231.7 3720.0,1283.0" fill="#818CF8" fill-opacity="0.65" />
    <polygon points="1320.3,1027.4 1504.7,793.2 1600.5,800.9 1635.4,961.2 1370.1,1035.7" fill="#FBBF24" fill-opacity="0.65" />
    <polygon points="1686.1,1013.2 1635.4,961.2 1600.5,800.9 1638.3,758.3 1853.7,753.5 1923.5,947.0" fill="#A3E635" fill-opacity="0.65" />
    <polygon points="560.0,1824.7 549.2,1804.9 547.6,1701.2 592.4,1635.6 842.7,1634.7 890.3,1665.6 789.2,1968.6" fill="#C084FC" fill-opacity="0.65" />
    <polygon points="2098.3,1699.3 1793.3,1624.9 1788.1,1619.3 1773.8,1503.4 1823.0,1442.1 1845.9,1427.4 2055.3,1415.3 2139.9,1606.3 2137.5,1655.5" fill="#FB7185" fill-opacity="0.65" />
    <polygon points="2480.9,882.8 2438.9,1122.8 2302.0,1211.5 2199.7,957.0" fill="#22D3EE" fill-opacity="0.65" />
    <polygon points="2922.8,838.4 2875.1,805.0 2915.0,505.0 3125.7,505.0 3170.0,728.1 2937.2,838.7" fill="#86EFAC" fill-opacity="0.65" />
    <polygon points="412.7,1430.4 417.0,1426.5 453.4,1430.4 549.1,1495.8 592.4,1635.6 547.6,1701.2 356.6,1657.2" fill="#FCD34D" fill-opacity="0.65" />
    <polygon points="2480.9,882.8 2199.7,957.0 2142.8,930.5 2157.9,757.8 2377.9,505.0 2412.6,505.0 2560.8,816.6" fill="#38BDF8" fill-opacity="0.65" />
    <polygon points="688.2,1139.9 431.1,1154.8 334.0,1097.0 412.6,948.3 573.3,904.1 736.8,1006.0 708.9,1131.8" fill="#38BDF8" fill-opacity="0.65" />
    <polygon points="1886.5,1195.9 1845.9,1427.4 1823.0,1442.1 1656.8,1159.9 1666.2,1147.0" fill="#A78BFA" fill-opacity="0.65" />
  </g>
  <g>
    <circle cx="3177.1" cy="839.3" r="18" fill="#0F172A" stroke="#FFFFFF" stroke-width="7" />
    <circle cx="3026.2" cy="1317.3" r="18" fill="#0F172A" stroke="#FFFFFF" stroke-width="7" />
    <circle cx="2010.5" cy="770.8" r="18" fill="#0F172A" stroke="#FFFFFF" stroke-width="7" />
    <circle cx="2230.3" cy="1948.9" r="18" fill="#0F172A" stroke="#FFFFFF" stroke-width="7" />
    <circle cx="1346.2" cy="625.4" r="18" fill="#0F172A" stroke="#FFFFFF" stroke-width="7" />
    <circle cx="2297.5" cy="1578.6" r="18" fill="#0F172A" stroke="#FFFFFF" stroke-width="7" />
    <circle cx="968.4" cy="1142.1" r="18" fill="#0F172A" stroke="#FFFFFF" stroke-width="7" />
    <circle cx="3084.3" cy="1710.8" r="18" fill="#0F172A" stroke="#FFFFFF" stroke-width="7" />
    <circle cx="410.6" cy="1757.3" r="18" fill="#0F172A" stroke="#FFFFFF" stroke-width="7" />
    <circle cx="1935.8" cy="1768.3" r="18" fill="#0F172A" stroke="#FFFFFF" stroke-width="7" />
    <circle cx="1442.6" cy="1797.4" r="18" fill="#0F172A" stroke="#FFFFFF" stroke-width="7" />
    <circle cx="685.4" cy="1517.5" r="18" fill="#0F172A" stroke="#FFFFFF" stroke-width="7" />
    <circle cx="2681.1" cy="1646.8" r="18" fill="#0F172A" stroke="#FFFFFF" stroke-width="7" />
    <circle cx="1538.7" cy="1067.7" r="18" fill="#0F172A" stroke="#FFFFFF" stroke-width="7" />
    <circle cx="2211.5" cy="1463.2" r="18" fill="#0F172A" stroke="#FFFFFF" stroke-width="7" />
    <circle cx="1811.3" cy="1108.3" r="18" fill="#0F172A" stroke="#FFFFFF" stroke-width="7" />
    <circle cx="3081.7" cy="1030.2" r="18" fill="#0F172A" stroke="#FFFFFF" stroke-width="7" />
    <circle cx="1001.0" cy="1858.1" r="18" fill="#0F172A" stroke="#FFFFFF" stroke-width="7" />
    <circle cx="2709.1" cy="601.9" r="18" fill="#0F172A" stroke="#FFFFFF" stroke-width="7" />
    <circle cx="1582.5" cy="1612.7" r="18" fill="#0F172A" stroke="#FFFFFF" stroke-width="7" />
    <circle cx="431.7" cy="1892.5" r="18" fill="#0F172A" stroke="#FFFFFF" stroke-width="7" />
    <circle cx="3141.7" cy="1941.5" r="18" fill="#0F172A" stroke="#FFFFFF" stroke-width="7" />
    <circle cx="3639.8" cy="1827.6" r="18" fill="#0F172A" stroke="#FFFFFF" stroke-width="7" />
    <circle cx="340.9" cy="1247.2" r="18" fill="#0F172A" stroke="#FFFFFF" stroke-width="7" />
    <circle cx="1263.1" cy="1542.0" r="18" fill="#0F172A" stroke="#FFFFFF" stroke-width="7" />
    <circle cx="3216.4" cy="626.9" r="18" fill="#0F172A" stroke="#FFFFFF" stroke-width="7" />
    <circle cx="601.2" cy="1368.1" r="18" fill="#0F172A" stroke="#FFFFFF" stroke-width="7" />
    <circle cx="415.6" cy="586.8" r="18" fill="#0F172A" stroke="#FFFFFF" stroke-width="7" />
    <circle cx="3473.3" cy="737.4" r="18" fill="#0F172A" stroke="#FFFFFF" stroke-width="7" />
    <circle cx="550.3" cy="1969.5" r="18" fill="#0F172A" stroke="#FFFFFF" stroke-width="7" />
    <circle cx="3537.3" cy="952.6" r="18" fill="#0F172A" stroke="#FFFFFF" stroke-width="7" />
    <circle cx="1669.6" cy="1309.3" r="18" fill="#0F172A" stroke="#FFFFFF" stroke-width="7" />
    <circle cx="1122.7" cy="1395.6" r="18" fill="#0F172A" stroke="#FFFFFF" stroke-width="7" />
    <circle cx="483.3" cy="1272.8" r="18" fill="#0F172A" stroke="#FFFFFF" stroke-width="7" />
    <circle cx="418.8" cy="847.7" r="18" fill="#0F172A" stroke="#FFFFFF" stroke-width="7" />
    <circle cx="3637.6" cy="1566.6" r="18" fill="#0F172A" stroke="#FFFFFF" stroke-width="7" />
    <circle cx="2100.1" cy="621.7" r="18" fill="#0F172A" stroke="#FFFFFF" stroke-width="7" />
    <circle cx="1739.0" cy="645.0" r="18" fill="#0F172A" stroke="#FFFFFF" stroke-width="7" />
    <circle cx="2084.8" cy="1912.9" r="18" fill="#0F172A" stroke="#FFFFFF" stroke-width="7" />
    <circle cx="1167.6" cy="1194.2" r="18" fill="#0F172A" stroke="#FFFFFF" stroke-width="7" />
    <circle cx="2914.0" cy="1226.1" r="18" fill="#0F172A" stroke="#FFFFFF" stroke-width="7" />
    <circle cx="3195.7" cy="1388.5" r="18" fill="#0F172A" stroke="#FFFFFF" stroke-width="7" />
    <circle cx="255.7" cy="1381.8" r="18" fill="#0F172A" stroke="#FFFFFF" stroke-width="7" />
    <circle cx="2460.4" cy="1905.2" r="18" fill="#0F172A" stroke="#FFFFFF" stroke-width="7" />
    <circle cx="2921.6" cy="1389.8" r="18" fill="#0F172A" stroke="#FFFFFF" stroke-width="7" />
    <circle cx="887.3" cy="1443.6" r="18" fill="#0F172A" stroke="#FFFFFF" stroke-width="7" />
    <circle cx="311.8" cy="948.3" r="18" fill="#0F172A" stroke="#FFFFFF" stroke-width="7" />
    <circle cx="1406.2" cy="1328.2" r="18" fill="#0F172A" stroke="#FFFFFF" stroke-width="7" />
    <circle cx="3624.8" cy="1697.9" r="18" fill="#0F172A" stroke="#FFFFFF" stroke-width="7" />
    <circle cx="2141.2" cy="1137.8" r="18" fill="#0F172A" stroke="#FFFFFF" stroke-width="7" />
    <circle cx="1071.8" cy="1535.8" r="18" fill="#0F172A" stroke="#FFFFFF" stroke-width="7" />
    <circle cx="641.9" cy="754.6" r="18" fill="#0F172A" stroke="#FFFFFF" stroke-width="7" />
    <circle cx="965.9" cy="844.8" r="18" fill="#0F172A" stroke="#FFFFFF" stroke-width="7" />
    <circle cx="2478.6" cy="1219.4" r="18" fill="#0F172A" stroke="#FFFFFF" stroke-width="7" />
    <circle cx="199.9" cy="773.9" r="18" fill="#0F172A" stroke="#FFFFFF" stroke-width="7" />
    <circle cx="1719.9" cy="1813.3" r="18" fill="#0F172A" stroke="#FFFFFF" stroke-width="7" />
    <circle cx="1382.5" cy="830.2" r="18" fill="#0F172A" stroke="#FFFFFF" stroke-width="7" />
    <circle cx="2733.9" cy="1482.6" r="18" fill="#0F172A" stroke="#FFFFFF" stroke-width="7" />
    <circle cx="3188.5" cy="1143.5" r="18" fill="#0F172A" stroke="#FFFFFF" stroke-width="7" />
    <circle cx="2245.8" cy="1796.2" r="18" fill="#0F172A" stroke="#FFFFFF" stroke-width="7" />
    <circle cx="2532.3" cy="1076.0" r="18" fill="#0F172A" stroke="#FFFFFF" stroke-width="7" />
    <circle cx="2534.0" cy="1358.6" r="18" fill="#0F172A" stroke="#FFFFFF" stroke-width="7" />
    <circle cx="989.8" cy="633.9" r="18" fill="#0F172A" stroke="#FFFFFF" stroke-width="7" />
    <circle cx="1517.8" cy="666.2" r="18" fill="#0F172A" stroke="#FFFFFF" stroke-width="7" />
    <circle cx="2804.5" cy="1057.6" r="18" fill="#0F172A" stroke="#FFFFFF" stroke-width="7" />
    <circle cx="3515.5" cy="1790.4" r="18" fill="#0F172A" stroke="#FFFFFF" stroke-width="7" />
    <circle cx="1969.2" cy="1276.4" r="18" fill="#0F172A" stroke="#FFFFFF" stroke-width="7" />
    <circle cx="3407.2" cy="1224.3" r="18" fill="#0F172A" stroke="#FFFFFF" stroke-width="7" />
    <circle cx="305.8" cy="1555.3" r="18" fill="#0F172A" stroke="#FFFFFF" stroke-width="7" />
    <circle cx="1453.5" cy="1185.6" r="18" fill="#0F172A" stroke="#FFFFFF" stroke-width="7" />
    <circle cx="2407.2" cy="1644.5" r="18" fill="#0F172A" stroke="#FFFFFF" stroke-width="7" />
    <circle cx="3435.3" cy="1361.5" r="18" fill="#0F172A" stroke="#FFFFFF" stroke-width="7" />
    <circle cx="1497.4" cy="920.7" r="18" fill="#0F172A" stroke="#FFFFFF" stroke-width="7" />
    <circle cx="1744.0" cy="867.0" r="18" fill="#0F172A" stroke="#FFFFFF" stroke-width="7" />
    <circle cx="686.2" cy="1753.0" r="18" fill="#0F172A" stroke="#FFFFFF" stroke-width="7" />
    <circle cx="1985.9" cy="1563.1" r="18" fill="#0F172A" stroke="#FFFFFF" stroke-width="7" />
    <circle cx="2366.9" cy="1047.1" r="18" fill="#0F172A" stroke="#FFFFFF" stroke-width="7" />
    <circle cx="3088.4" cy="652.3" r="18" fill="#0F172A" stroke="#FFFFFF" stroke-width="7" />
    <circle cx="449.0" cy="1590.8" r="18" fill="#0F172A" stroke="#FFFFFF" stroke-width="7" />
    <circle cx="2300.7" cy="796.2" r="18" fill="#0F172A" stroke="#FFFFFF" stroke-width="7" />
    <circle cx="469.3" cy="1031.6" r="18" fill="#0F172A" stroke="#FFFFFF" stroke-width="7" />
    <circle cx="1781.3" cy="1243.5" r="18" fill="#0F172A" stroke="#FFFFFF" stroke-width="7" />
  </g>
  <g font-family="Arial, sans-serif" font-size="47" fill="#64748B"><text x="227" y="2205">Each region contains all points closest to its dark site marker.</text><text x="3083" y="2205">sites: 82</text></g>
</svg>
