<svg xmlns="http://www.w3.org/2000/svg" width="1200" height="760" viewBox="0 0 1200 760" role="img" aria-labelledby="title description">
  <title id="title">Voronoi diagram with 20 sites</title>
  <desc id="description">A clipped Voronoi diagram with 20 randomly generated sites. Seed: 1789146084.</desc>
  <defs>
    <linearGradient id="background" x1="0" y1="0" x2="1" y2="1"><stop stop-color="#F8FAFC"/><stop offset="1" stop-color="#E0F2FE"/></linearGradient>
    <filter id="shadow" x="-10%" y="-10%" width="120%" height="120%"><feDropShadow dx="0" dy="5" stdDeviation="7" flood-color="#0F172A" flood-opacity=".12"/></filter>
  </defs>
  <rect width="1200" height="760" fill="url(#background)"/>
  <rect x="38" y="38" width="1124" height="684" rx="20" fill="#FFFFFF" filter="url(#shadow)"/>
  <g font-family="Arial, sans-serif"><text x="72" y="94" font-size="32" font-weight="700" fill="#0F172A">Voronoi Diagram</text><text x="72" y="126" font-size="18" fill="#475569">20 sites · generated with seed 1789146084</text></g>
  <g stroke="#FFFFFF" stroke-width="3" stroke-linejoin="round">
    <polygon points="913.0,479.3 1058.6,457.6 1062.5,458.3 1085.0,650.0 925.4,650.0" fill="#38BDF8" fill-opacity="0.60" />
    <polygon points="474.5,468.5 599.0,436.6 656.3,472.5 672.3,505.8 661.7,650.0 328.3,650.0" fill="#A78BFA" fill-opacity="0.60" />
    <polygon points="653.9,226.7 572.5,274.1 383.5,160.0 694.6,160.0" fill="#F472B6" fill-opacity="0.60" />
    <polygon points="1062.5,458.3 1073.8,451.1 1162.0,437.8 1162.0,650.0 1085.0,650.0" fill="#FB923C" fill-opacity="0.60" />
    <polygon points="107.9,370.2 38.0,374.6 38.0,160.0 148.1,160.0" fill="#FACC15" fill-opacity="0.60" />
    <polygon points="1073.9,280.5 985.8,258.9 978.8,160.0 1162.0,160.0 1162.0,264.0" fill="#4ADE80" fill-opacity="0.60" />
    <polygon points="239.2,431.2 343.6,305.7 383.1,331.1 474.5,468.5 328.3,650.0 277.9,650.0" fill="#2DD4BF" fill-opacity="0.60" />
    <polygon points="672.3,505.8 885.8,451.6 913.0,479.3 925.4,650.0 661.7,650.0" fill="#60A5FA" fill-opacity="0.60" />
    <polygon points="38.0,374.6 107.9,370.2 239.2,431.2 277.9,650.0 38.0,650.0" fill="#38BDF8" fill-opacity="0.60" />
    <polygon points="952.3,290.0 889.1,322.7 864.5,310.6 808.8,254.3 758.3,160.0 978.8,160.0 985.8,258.9" fill="#A78BFA" fill-opacity="0.60" />
    <polygon points="690.5,404.4 696.4,340.6 808.8,254.3 864.5,310.6" fill="#F472B6" fill-opacity="0.60" />
    <polygon points="383.1,331.1 566.0,371.7 599.0,436.6 474.5,468.5" fill="#FB923C" fill-opacity="0.60" />
    <polygon points="808.8,254.3 696.4,340.6 653.9,226.7 694.6,160.0 758.3,160.0" fill="#FACC15" fill-opacity="0.60" />
    <polygon points="1073.8,451.1 1062.5,458.3 1058.6,457.6 952.3,290.0 985.8,258.9 1073.9,280.5" fill="#4ADE80" fill-opacity="0.60" />
    <polygon points="889.1,322.7 952.3,290.0 1058.6,457.6 913.0,479.3 885.8,451.6" fill="#2DD4BF" fill-opacity="0.60" />
    <polygon points="696.4,340.6 690.5,404.4 656.3,472.5 599.0,436.6 566.0,371.7 572.5,274.1 653.9,226.7" fill="#60A5FA" fill-opacity="0.60" />
    <polygon points="566.0,371.7 383.1,331.1 343.6,305.7 364.1,160.0 383.5,160.0 572.5,274.1" fill="#38BDF8" fill-opacity="0.60" />
    <polygon points="107.9,370.2 148.1,160.0 364.1,160.0 343.6,305.7 239.2,431.2" fill="#A78BFA" fill-opacity="0.60" />
    <polygon points="885.8,451.6 672.3,505.8 656.3,472.5 690.5,404.4 864.5,310.6 889.1,322.7" fill="#F472B6" fill-opacity="0.60" />
    <polygon points="1073.8,451.1 1073.9,280.5 1162.0,264.0 1162.0,437.8" fill="#FB923C" fill-opacity="0.60" />
  </g>
  <g>
    <circle cx="1005.8" cy="536.8" r="8" fill="#0F172A" stroke="#FFFFFF" stroke-width="3" />
    <circle cx="510.5" cy="526.3" r="8" fill="#0F172A" stroke="#FFFFFF" stroke-width="3" />
    <circle cx="568.4" cy="192.8" r="8" fill="#0F172A" stroke="#FFFFFF" stroke-width="3" />
    <circle cx="1135.9" cy="521.6" r="8" fill="#0F172A" stroke="#FFFFFF" stroke-width="3" />
    <circle cx="66.7" cy="241.2" r="8" fill="#0F172A" stroke="#FFFFFF" stroke-width="3" />
    <circle cx="1079.0" cy="187.5" r="8" fill="#0F172A" stroke="#FFFFFF" stroke-width="3" />
    <circle cx="410.4" cy="445.7" r="8" fill="#0F172A" stroke="#FFFFFF" stroke-width="3" />
    <circle cx="829.4" cy="549.7" r="8" fill="#0F172A" stroke="#FFFFFF" stroke-width="3" />
    <circle cx="83.4" cy="503.4" r="8" fill="#0F172A" stroke="#FFFFFF" stroke-width="3" />
    <circle cx="883.5" cy="201.4" r="8" fill="#0F172A" stroke="#FFFFFF" stroke-width="3" />
    <circle cx="755.0" cy="328.4" r="8" fill="#0F172A" stroke="#FFFFFF" stroke-width="3" />
    <circle cx="478.2" cy="400.6" r="8" fill="#0F172A" stroke="#FFFFFF" stroke-width="3" />
    <circle cx="723.3" cy="287.2" r="8" fill="#0F172A" stroke="#FFFFFF" stroke-width="3" />
    <circle cx="1035.3" cy="365.3" r="8" fill="#0F172A" stroke="#FFFFFF" stroke-width="3" />
    <circle cx="985.1" cy="397.2" r="8" fill="#0F172A" stroke="#FFFFFF" stroke-width="3" />
    <circle cx="641.1" cy="317.8" r="8" fill="#0F172A" stroke="#FFFFFF" stroke-width="3" />
    <circle cx="498.7" cy="308.3" r="8" fill="#0F172A" stroke="#FFFFFF" stroke-width="3" />
    <circle cx="193.8" cy="265.5" r="8" fill="#0F172A" stroke="#FFFFFF" stroke-width="3" />
    <circle cx="789.5" cy="392.3" r="8" fill="#0F172A" stroke="#FFFFFF" stroke-width="3" />
    <circle cx="1112.3" cy="365.4" r="8" fill="#0F172A" stroke="#FFFFFF" stroke-width="3" />
  </g>
  <g font-family="Arial, sans-serif" font-size="15" fill="#64748B"><text x="72" y="698">Each region contains all points closest to its dark site marker.</text><text x="998" y="698">sites: 20</text></g>
</svg>
