<svg xmlns="http://www.w3.org/2000/svg" width="3840" height="2400" viewBox="0 0 3840 2400" role="img" aria-labelledby="title description">
  <title id="title">Voronoi diagram with 29 sites</title>
  <desc id="description">A high-resolution 3840x2400 clipped Voronoi diagram with 29 sites. Seed: 1789654246.</desc>
  <defs>
    <linearGradient id="background" x1="0" y1="0" x2="1" y2="1"><stop stop-color="#F8FAFC"/><stop offset="1" stop-color="#E0F2FE"/></linearGradient>
    <filter id="shadow" x="-5%" y="-5%" width="110%" height="110%"><feDropShadow dx="0" dy="15" stdDeviation="22" flood-color="#0F172A" flood-opacity=".12"/></filter>
  </defs>
  <rect width="3840" height="2400" fill="url(#background)"/>
  <rect x="120" y="120" width="3600" height="2160" rx="63" fill="#FFFFFF" filter="url(#shadow)"/>
  <g font-family="Arial, sans-serif"><text x="227" y="296" font-size="101" font-weight="700" fill="#0F172A">Voronoi Diagram</text><text x="227" y="397" font-size="56" fill="#475569">29 sites · generated with seed 1789654246 · Ultra HD (3840x2400)</text></g>
  <g stroke="#FFFFFF" stroke-width="7" stroke-linejoin="round">
    <polygon points="1395.3,981.4 1048.2,1186.2 992.8,1073.3 983.1,840.7 1285.1,627.2" fill="#38BDF8" fill-opacity="0.65" />
    <polygon points="1042.3,1221.3 935.7,1405.7 468.7,1347.7 120.0,1126.4 120.0,985.2 509.2,922.4 992.8,1073.3 1048.2,1186.2" fill="#A78BFA" fill-opacity="0.65" />
    <polygon points="1818.5,1886.0 1776.4,1829.9 1708.2,1351.6 2176.7,1323.0 2223.8,1339.9 2240.6,1454.5 2061.5,1759.6" fill="#F472B6" fill-opacity="0.65" />
    <polygon points="2878.7,781.3 3107.2,1091.0 3083.4,1186.2 2830.4,1284.8 2473.3,1243.0 2525.9,910.4" fill="#FB923C" fill-opacity="0.65" />
    <polygon points="120.0,1126.4 468.7,1347.7 546.9,2053.0 120.0,2053.0" fill="#FACC15" fill-opacity="0.65" />
    <polygon points="1939.4,837.6 2030.1,714.7 2290.7,826.6 2258.4,1312.9 2223.8,1339.9 2176.7,1323.0" fill="#4ADE80" fill-opacity="0.65" />
    <polygon points="3199.5,1577.4 3215.6,1449.2 3720.0,1499.5 3720.0,2053.0 3495.2,2053.0" fill="#2DD4BF" fill-opacity="0.65" />
    <polygon points="2594.4,1811.1 2240.6,1454.5 2223.8,1339.9 2258.4,1312.9 2473.3,1243.0 2830.4,1284.8" fill="#60A5FA" fill-opacity="0.65" />
    <polygon points="3215.6,1449.2 3083.4,1186.2 3107.2,1091.0 3720.0,732.1 3720.0,1499.5" fill="#E879F9" fill-opacity="0.65" />
    <polygon points="1285.1,627.2 983.1,840.7 840.3,709.9 815.2,505.0 1318.8,505.0" fill="#34D399" fill-opacity="0.65" />
    <polygon points="509.2,922.4 840.3,709.9 983.1,840.7 992.8,1073.3" fill="#F87171" fill-opacity="0.65" />
    <polygon points="2061.5,1759.6 2240.6,1454.5 2594.4,1811.1 2661.0,2053.0 2445.4,2053.0" fill="#818CF8" fill-opacity="0.65" />
    <polygon points="2346.3,811.6 2290.7,826.6 2030.1,714.7 2016.5,505.0 2531.9,505.0" fill="#FBBF24" fill-opacity="0.65" />
    <polygon points="1540.4,1399.6 1042.3,1221.3 1048.2,1186.2 1395.3,981.4 1622.2,1044.6 1691.7,1340.8" fill="#A3E635" fill-opacity="0.65" />
    <polygon points="976.4,1537.1 1370.1,1612.4 1422.0,1758.8 1215.8,2053.0 889.0,2053.0" fill="#C084FC" fill-opacity="0.65" />
    <polygon points="1718.9,922.8 1622.2,1044.6 1395.3,981.4 1285.1,627.2 1318.8,505.0 1529.5,505.0" fill="#FB7185" fill-opacity="0.65" />
    <polygon points="2346.3,811.6 2525.9,910.4 2473.3,1243.0 2258.4,1312.9 2290.7,826.6" fill="#22D3EE" fill-opacity="0.65" />
    <polygon points="1718.9,922.8 1939.4,837.6 2176.7,1323.0 1708.2,1351.6 1691.7,1340.8 1622.2,1044.6" fill="#86EFAC" fill-opacity="0.65" />
    <polygon points="3107.2,1091.0 2878.7,781.3 2812.4,505.0 3720.0,505.0 3720.0,732.1" fill="#FCD34D" fill-opacity="0.65" />
    <polygon points="2878.7,781.3 2525.9,910.4 2346.3,811.6 2531.9,505.0 2812.4,505.0" fill="#38BDF8" fill-opacity="0.65" />
    <polygon points="3199.5,1577.4 3495.2,2053.0 2741.0,2053.0" fill="#38BDF8" fill-opacity="0.65" />
    <polygon points="840.3,709.9 509.2,922.4 120.0,985.2 120.0,505.0 815.2,505.0" fill="#A78BFA" fill-opacity="0.65" />
    <polygon points="2594.4,1811.1 2830.4,1284.8 3083.4,1186.2 3215.6,1449.2 3199.5,1577.4 2741.0,2053.0 2661.0,2053.0" fill="#F472B6" fill-opacity="0.65" />
    <polygon points="1422.0,1758.8 1370.1,1612.4 1540.4,1399.6 1691.7,1340.8 1708.2,1351.6 1776.4,1829.9" fill="#FB923C" fill-opacity="0.65" />
    <polygon points="1370.1,1612.4 976.4,1537.1 935.7,1405.7 1042.3,1221.3 1540.4,1399.6" fill="#FACC15" fill-opacity="0.65" />
    <polygon points="2030.1,714.7 1939.4,837.6 1718.9,922.8 1529.5,505.0 2016.5,505.0" fill="#4ADE80" fill-opacity="0.65" />
    <polygon points="468.7,1347.7 935.7,1405.7 976.4,1537.1 889.0,2053.0 546.9,2053.0" fill="#2DD4BF" fill-opacity="0.65" />
    <polygon points="1422.0,1758.8 1776.4,1829.9 1818.5,1886.0 1807.8,2053.0 1215.8,2053.0" fill="#60A5FA" fill-opacity="0.65" />
    <polygon points="1818.5,1886.0 2061.5,1759.6 2445.4,2053.0 1807.8,2053.0" fill="#E879F9" fill-opacity="0.65" />
  </g>
  <g>
    <circle cx="1184.5" cy="875.8" r="22" fill="#0F172A" stroke="#FFFFFF" stroke-width="7" />
    <circle cx="719.3" cy="1104.1" r="22" fill="#0F172A" stroke="#FFFFFF" stroke-width="7" />
    <circle cx="1940.4" cy="1583.0" r="22" fill="#0F172A" stroke="#FFFFFF" stroke-width="7" />
    <circle cx="2620.0" cy="1022.8" r="22" fill="#0F172A" stroke="#FFFFFF" stroke-width="7" />
    <circle cx="354.9" cy="1678.2" r="22" fill="#0F172A" stroke="#FFFFFF" stroke-width="7" />
    <circle cx="2159.2" cy="972.2" r="22" fill="#0F172A" stroke="#FFFFFF" stroke-width="7" />
    <circle cx="3524.8" cy="1704.5" r="22" fill="#0F172A" stroke="#FFFFFF" stroke-width="7" />
    <circle cx="2565.2" cy="1491.1" r="22" fill="#0F172A" stroke="#FFFFFF" stroke-width="7" />
    <circle cx="3569.2" cy="1260.0" r="22" fill="#0F172A" stroke="#FFFFFF" stroke-width="7" />
    <circle cx="1017.2" cy="639.2" r="22" fill="#0F172A" stroke="#FFFFFF" stroke-width="7" />
    <circle cx="785.4" cy="892.4" r="22" fill="#0F172A" stroke="#FFFFFF" stroke-width="7" />
    <circle cx="2274.7" cy="1779.3" r="22" fill="#0F172A" stroke="#FFFFFF" stroke-width="7" />
    <circle cx="2305.7" cy="631.0" r="22" fill="#0F172A" stroke="#FFFFFF" stroke-width="7" />
    <circle cx="1385.8" cy="1216.9" r="22" fill="#0F172A" stroke="#FFFFFF" stroke-width="7" />
    <circle cx="1247.0" cy="1746.0" r="22" fill="#0F172A" stroke="#FFFFFF" stroke-width="7" />
    <circle cx="1509.0" cy="774.9" r="22" fill="#0F172A" stroke="#FFFFFF" stroke-width="7" />
    <circle cx="2401.8" cy="988.3" r="22" fill="#0F172A" stroke="#FFFFFF" stroke-width="7" />
    <circle cx="1910.5" cy="1093.7" r="22" fill="#0F172A" stroke="#FFFFFF" stroke-width="7" />
    <circle cx="3185.8" cy="605.4" r="22" fill="#0F172A" stroke="#FFFFFF" stroke-width="7" />
    <circle cx="2525.2" cy="763.9" r="22" fill="#0F172A" stroke="#FFFFFF" stroke-width="7" />
    <circle cx="3169.6" cy="1925.5" r="22" fill="#0F172A" stroke="#FFFFFF" stroke-width="7" />
    <circle cx="651.5" cy="683.9" r="22" fill="#0F172A" stroke="#FFFFFF" stroke-width="7" />
    <circle cx="2852.8" cy="1620.1" r="22" fill="#0F172A" stroke="#FFFFFF" stroke-width="7" />
    <circle cx="1549.9" cy="1638.7" r="22" fill="#0F172A" stroke="#FFFFFF" stroke-width="7" />
    <circle cx="1305.0" cy="1442.7" r="22" fill="#0F172A" stroke="#FFFFFF" stroke-width="7" />
    <circle cx="1746.0" cy="667.4" r="22" fill="#0F172A" stroke="#FFFFFF" stroke-width="7" />
    <circle cx="652.2" cy="1645.2" r="22" fill="#0F172A" stroke="#FFFFFF" stroke-width="7" />
    <circle cx="1493.7" cy="1918.9" r="22" fill="#0F172A" stroke="#FFFFFF" stroke-width="7" />
    <circle cx="2136.5" cy="1960.1" r="22" fill="#0F172A" stroke="#FFFFFF" stroke-width="7" />
  </g>
  <g font-family="Arial, sans-serif" font-size="47" fill="#64748B"><text x="227" y="2205">Each region contains all points closest to its dark site marker.</text><text x="3083" y="2205">sites: 29</text></g>
</svg>
