<svg xmlns="http://www.w3.org/2000/svg" width="3840" height="2400" viewBox="0 0 3840 2400" role="img" aria-labelledby="title description">
  <title id="title">Voronoi diagram with 69 sites</title>
  <desc id="description">A high-resolution 3840x2400 clipped Voronoi diagram with 69 sites. Seed: 1790105315.</desc>
  <defs>
    <linearGradient id="background" x1="0" y1="0" x2="1" y2="1"><stop stop-color="#F8FAFC"/><stop offset="1" stop-color="#E0F2FE"/></linearGradient>
    <filter id="shadow" x="-5%" y="-5%" width="110%" height="110%"><feDropShadow dx="0" dy="15" stdDeviation="22" flood-color="#0F172A" flood-opacity=".12"/></filter>
  </defs>
  <rect width="3840" height="2400" fill="url(#background)"/>
  <rect x="120" y="120" width="3600" height="2160" rx="63" fill="#FFFFFF" filter="url(#shadow)"/>
  <g font-family="Arial, sans-serif"><text x="227" y="296" font-size="101" font-weight="700" fill="#0F172A">Voronoi Diagram</text><text x="227" y="397" font-size="56" fill="#475569">69 sites · generated with seed 1790105315 · Ultra HD (3840x2400)</text></g>
  <g stroke="#FFFFFF" stroke-width="7" stroke-linejoin="round">
    <polygon points="1226.7,1411.8 1183.5,1379.1 1235.5,1159.9 1467.7,1189.5 1445.2,1401.9" fill="#38BDF8" fill-opacity="0.65" />
    <polygon points="2102.9,1977.7 1988.9,1845.2 2068.4,1553.5 2268.3,1615.5 2274.6,1779.6" fill="#A78BFA" fill-opacity="0.65" />
    <polygon points="3420.3,1677.5 3260.7,1732.4 3105.9,1589.8 3100.1,1557.0 3105.0,1550.9 3318.6,1522.1" fill="#F472B6" fill-opacity="0.65" />
    <polygon points="2544.8,1199.6 2537.9,1158.0 2567.8,1092.8 2935.4,1210.6 2753.1,1515.9 2724.2,1528.0" fill="#FB923C" fill-opacity="0.65" />
    <polygon points="3460.9,1329.2 3318.6,1522.1 3105.0,1550.9 3132.7,1324.2 3243.1,1259.2 3417.8,1289.3" fill="#FACC15" fill-opacity="0.65" />
    <polygon points="1958.4,1035.9 1957.2,1032.6 2014.2,743.4 2052.7,705.0 2306.4,781.6 2308.8,848.1 2073.4,1096.8 2068.8,1097.4" fill="#4ADE80" fill-opacity="0.65" />
    <polygon points="1720.5,1168.4 1731.2,1422.2 1709.4,1463.4 1592.7,1511.3 1445.2,1401.9 1467.7,1189.5 1554.9,1081.7" fill="#2DD4BF" fill-opacity="0.65" />
    <polygon points="1032.2,775.9 865.9,826.8 677.3,736.2 587.0,505.0 811.7,505.0" fill="#60A5FA" fill-opacity="0.65" />
    <polygon points="1899.3,1808.0 1531.2,1877.2 1513.8,1747.9 1592.7,1511.3 1709.4,1463.4 1805.9,1546.7" fill="#E879F9" fill-opacity="0.65" />
    <polygon points="1052.2,1380.6 990.4,1183.6 1042.3,1099.1 1233.5,1154.0 1235.5,1159.9 1183.5,1379.1" fill="#34D399" fill-opacity="0.65" />
    <polygon points="3131.2,1017.0 3199.0,1072.1 3243.1,1259.2 3132.7,1324.2 2937.6,1209.5 2957.5,1142.8" fill="#F87171" fill-opacity="0.65" />
    <polygon points="1151.3,1972.7 1212.5,1641.0 1232.1,1623.0 1513.8,1747.9 1531.2,1877.2 1460.2,2053.0 1179.3,2053.0" fill="#818CF8" fill-opacity="0.65" />
    <polygon points="2568.8,1072.7 2635.5,989.1 2869.0,966.7 2957.5,1142.8 2937.6,1209.5 2935.4,1210.6 2567.8,1092.8" fill="#FBBF24" fill-opacity="0.65" />
    <polygon points="409.3,727.0 120.0,857.9 120.0,505.0 529.3,505.0" fill="#A3E635" fill-opacity="0.65" />
    <polygon points="1749.6,708.2 1703.1,802.1 1519.9,876.4 1301.4,532.0 1303.8,505.0 1749.0,505.0" fill="#C084FC" fill-opacity="0.65" />
    <polygon points="3485.3,869.1 3445.4,909.8 3114.5,775.3 3059.0,690.0 3110.2,505.0 3435.3,505.0" fill="#FB7185" fill-opacity="0.65" />
    <polygon points="3032.2,704.1 3059.0,690.0 3114.5,775.3 3131.2,1017.0 2957.5,1142.8 2869.0,966.7" fill="#22D3EE" fill-opacity="0.65" />
    <polygon points="1109.4,871.3 1270.2,988.2 1233.5,1154.0 1042.3,1099.1 1024.3,1006.3" fill="#86EFAC" fill-opacity="0.65" />
    <polygon points="3059.0,690.0 3032.2,704.1 2851.6,720.2 2524.8,585.3 2468.5,527.0 2467.2,505.0 3110.2,505.0" fill="#FCD34D" fill-opacity="0.65" />
    <polygon points="764.4,1140.3 737.0,1099.0 842.3,1008.2 1024.3,1006.3 1042.3,1099.1 990.4,1183.6" fill="#38BDF8" fill-opacity="0.65" />
    <polygon points="3432.4,998.0 3417.8,1289.3 3243.1,1259.2 3199.0,1072.1" fill="#38BDF8" fill-opacity="0.65" />
    <polygon points="428.8,937.7 278.8,1142.4 120.0,1131.3 120.0,857.9 409.3,727.0" fill="#A78BFA" fill-opacity="0.65" />
    <polygon points="417.6,1225.7 481.3,1385.0 333.7,1580.3 120.0,1598.8 120.0,1131.3 278.8,1142.4" fill="#F472B6" fill-opacity="0.65" />
    <polygon points="2937.6,1209.5 3132.7,1324.2 3105.0,1550.9 3100.1,1557.0 2753.1,1515.9 2935.4,1210.6" fill="#FB923C" fill-opacity="0.65" />
    <polygon points="1232.1,1623.0 1226.7,1411.8 1445.2,1401.9 1592.7,1511.3 1513.8,1747.9" fill="#FACC15" fill-opacity="0.65" />
    <polygon points="2741.3,1991.0 2667.2,1788.4 2677.1,1605.3 2724.2,1528.0 2753.1,1515.9 3100.1,1557.0 3105.9,1589.8 3036.1,1792.2" fill="#4ADE80" fill-opacity="0.65" />
    <polygon points="2269.4,1397.5 2075.1,1428.3 2015.1,1328.9 2068.8,1097.4 2073.4,1096.8 2258.1,1196.6" fill="#2DD4BF" fill-opacity="0.65" />
    <polygon points="2468.5,527.0 2306.4,781.6 2052.7,705.0 2024.8,505.0 2467.2,505.0" fill="#60A5FA" fill-opacity="0.65" />
    <polygon points="1531.2,1877.2 1899.3,1808.0 1988.9,1845.2 2102.9,1977.7 2112.0,2053.0 1460.2,2053.0" fill="#E879F9" fill-opacity="0.65" />
    <polygon points="2063.8,1544.5 2075.1,1428.3 2269.4,1397.5 2338.8,1461.9 2354.9,1514.8 2268.3,1615.5 2068.4,1553.5" fill="#34D399" fill-opacity="0.65" />
    <polygon points="798.1,1546.5 799.4,1601.4 776.5,1634.4 472.0,1742.9 333.7,1580.3 481.3,1385.0" fill="#F87171" fill-opacity="0.65" />
    <polygon points="635.6,920.5 428.8,937.7 409.3,727.0 529.3,505.0 587.0,505.0 677.3,736.2" fill="#818CF8" fill-opacity="0.65" />
    <polygon points="2568.8,1072.7 2567.8,1092.8 2537.9,1158.0 2258.1,1196.6 2073.4,1096.8 2308.8,848.1" fill="#FBBF24" fill-opacity="0.65" />
    <polygon points="1270.2,988.2 1504.7,921.1 1554.9,1081.7 1467.7,1189.5 1235.5,1159.9 1233.5,1154.0" fill="#A3E635" fill-opacity="0.65" />
    <polygon points="2052.7,705.0 2014.2,743.4 1749.6,708.2 1749.0,505.0 2024.8,505.0" fill="#C084FC" fill-opacity="0.65" />
    <polygon points="1301.4,532.0 1090.1,787.4 1032.2,775.9 811.7,505.0 1303.8,505.0" fill="#FB7185" fill-opacity="0.65" />
    <polygon points="3485.3,869.1 3435.3,505.0 3720.0,505.0 3720.0,834.4" fill="#22D3EE" fill-opacity="0.65" />
    <polygon points="1090.1,787.4 1301.4,532.0 1519.9,876.4 1504.7,921.1 1270.2,988.2 1109.4,871.3" fill="#86EFAC" fill-opacity="0.65" />
    <polygon points="2646.7,908.5 2524.8,585.3 2851.6,720.2" fill="#FCD34D" fill-opacity="0.65" />
    <polygon points="765.9,1752.9 852.6,2053.0 516.3,2053.0" fill="#38BDF8" fill-opacity="0.65" />
    <polygon points="2274.6,1779.6 2268.3,1615.5 2354.9,1514.8 2677.1,1605.3 2667.2,1788.4" fill="#38BDF8" fill-opacity="0.65" />
    <polygon points="3036.1,1792.2 3105.9,1589.8 3260.7,1732.4 3250.1,1848.5 3211.9,1887.6" fill="#A78BFA" fill-opacity="0.65" />
    <polygon points="3440.8,983.9 3445.4,909.8 3485.3,869.1 3720.0,834.4 3720.0,1140.1" fill="#F472B6" fill-opacity="0.65" />
    <polygon points="809.0,1529.5 798.1,1546.5 481.3,1385.0 417.6,1225.7 714.1,1091.5 737.0,1099.0 764.4,1140.3" fill="#FB923C" fill-opacity="0.65" />
    <polygon points="1805.9,1546.7 1709.4,1463.4 1731.2,1422.2 2015.1,1328.9 2075.1,1428.3 2063.8,1544.5" fill="#FACC15" fill-opacity="0.65" />
    <polygon points="3250.1,1848.5 3260.7,1732.4 3420.3,1677.5 3720.0,1783.5 3720.0,1909.0" fill="#4ADE80" fill-opacity="0.65" />
    <polygon points="2102.9,1977.7 2274.6,1779.6 2667.2,1788.4 2741.3,1991.0 2740.0,2053.0 2112.0,2053.0" fill="#2DD4BF" fill-opacity="0.65" />
    <polygon points="1090.1,787.4 1109.4,871.3 1024.3,1006.3 842.3,1008.2 865.9,826.8 1032.2,775.9" fill="#60A5FA" fill-opacity="0.65" />
    <polygon points="2468.5,527.0 2524.8,585.3 2646.7,908.5 2635.5,989.1 2568.8,1072.7 2308.8,848.1 2306.4,781.6" fill="#E879F9" fill-opacity="0.65" />
    <polygon points="765.9,1752.9 776.5,1634.4 799.4,1601.4 907.3,1664.3 1151.3,1972.7 1179.3,2053.0 852.6,2053.0" fill="#34D399" fill-opacity="0.65" />
    <polygon points="907.3,1664.3 1212.5,1641.0 1151.3,1972.7" fill="#F87171" fill-opacity="0.65" />
    <polygon points="2014.2,743.4 1957.2,1032.6 1703.1,802.1 1749.6,708.2" fill="#818CF8" fill-opacity="0.65" />
    <polygon points="2646.7,908.5 2851.6,720.2 3032.2,704.1 2869.0,966.7 2635.5,989.1" fill="#FBBF24" fill-opacity="0.65" />
    <polygon points="1504.7,921.1 1519.9,876.4 1703.1,802.1 1957.2,1032.6 1958.4,1035.9 1720.5,1168.4 1554.9,1081.7" fill="#A3E635" fill-opacity="0.65" />
    <polygon points="472.0,1742.9 776.5,1634.4 765.9,1752.9 516.3,2053.0 349.9,2053.0" fill="#C084FC" fill-opacity="0.65" />
    <polygon points="2338.8,1461.9 2269.4,1397.5 2258.1,1196.6 2537.9,1158.0 2544.8,1199.6" fill="#FB7185" fill-opacity="0.65" />
    <polygon points="3460.9,1329.2 3417.8,1289.3 3432.4,998.0 3440.8,983.9 3720.0,1140.1 3720.0,1393.3" fill="#22D3EE" fill-opacity="0.65" />
    <polygon points="809.0,1529.5 764.4,1140.3 990.4,1183.6 1052.2,1380.6" fill="#86EFAC" fill-opacity="0.65" />
    <polygon points="3211.9,1887.6 3250.1,1848.5 3720.0,1909.0 3720.0,2053.0 3199.2,2053.0" fill="#FCD34D" fill-opacity="0.65" />
    <polygon points="1899.3,1808.0 1805.9,1546.7 2063.8,1544.5 2068.4,1553.5 1988.9,1845.2" fill="#38BDF8" fill-opacity="0.65" />
    <polygon points="1731.2,1422.2 1720.5,1168.4 1958.4,1035.9 2068.8,1097.4 2015.1,1328.9" fill="#38BDF8" fill-opacity="0.65" />
    <polygon points="120.0,1598.8 333.7,1580.3 472.0,1742.9 349.9,2053.0 120.0,2053.0" fill="#A78BFA" fill-opacity="0.65" />
    <polygon points="3440.8,983.9 3432.4,998.0 3199.0,1072.1 3131.2,1017.0 3114.5,775.3 3445.4,909.8" fill="#F472B6" fill-opacity="0.65" />
    <polygon points="2677.1,1605.3 2354.9,1514.8 2338.8,1461.9 2544.8,1199.6 2724.2,1528.0" fill="#FB923C" fill-opacity="0.65" />
    <polygon points="714.1,1091.5 417.6,1225.7 278.8,1142.4 428.8,937.7 635.6,920.5" fill="#FACC15" fill-opacity="0.65" />
    <polygon points="3420.3,1677.5 3318.6,1522.1 3460.9,1329.2 3720.0,1393.3 3720.0,1783.5" fill="#4ADE80" fill-opacity="0.65" />
    <polygon points="842.3,1008.2 737.0,1099.0 714.1,1091.5 635.6,920.5 677.3,736.2 865.9,826.8" fill="#2DD4BF" fill-opacity="0.65" />
    <polygon points="2741.3,1991.0 3036.1,1792.2 3211.9,1887.6 3199.2,2053.0 2740.0,2053.0" fill="#60A5FA" fill-opacity="0.65" />
    <polygon points="907.3,1664.3 799.4,1601.4 798.1,1546.5 809.0,1529.5 1052.2,1380.6 1183.5,1379.1 1226.7,1411.8 1232.1,1623.0 1212.5,1641.0" fill="#E879F9" fill-opacity="0.65" />
  </g>
  <g>
    <circle cx="1345.1" cy="1248.5" r="19" fill="#0F172A" stroke="#FFFFFF" stroke-width="7" />
    <circle cx="2140.4" cy="1676.9" r="19" fill="#0F172A" stroke="#FFFFFF" stroke-width="7" />
    <circle cx="3293.1" cy="1635.3" r="19" fill="#0F172A" stroke="#FFFFFF" stroke-width="7" />
    <circle cx="2759.5" cy="1252.2" r="19" fill="#0F172A" stroke="#FFFFFF" stroke-width="7" />
    <circle cx="3264.0" cy="1419.7" r="19" fill="#0F172A" stroke="#FFFFFF" stroke-width="7" />
    <circle cx="2104.6" cy="846.2" r="19" fill="#0F172A" stroke="#FFFFFF" stroke-width="7" />
    <circle cx="1575.2" cy="1272.8" r="19" fill="#0F172A" stroke="#FFFFFF" stroke-width="7" />
    <circle cx="868.5" cy="707.8" r="19" fill="#0F172A" stroke="#FFFFFF" stroke-width="7" />
    <circle cx="1747.9" cy="1693.3" r="19" fill="#0F172A" stroke="#FFFFFF" stroke-width="7" />
    <circle cx="1097.8" cy="1189.8" r="19" fill="#0F172A" stroke="#FFFFFF" stroke-width="7" />
    <circle cx="3112.9" cy="1163.0" r="19" fill="#0F172A" stroke="#FFFFFF" stroke-width="7" />
    <circle cx="1273.6" cy="1757.2" r="19" fill="#0F172A" stroke="#FFFFFF" stroke-width="7" />
    <circle cx="2816.5" cy="1074.5" r="19" fill="#0F172A" stroke="#FFFFFF" stroke-width="7" />
    <circle cx="251.4" cy="701.0" r="19" fill="#0F172A" stroke="#FFFFFF" stroke-width="7" />
    <circle cx="1587.2" cy="653.6" r="19" fill="#0F172A" stroke="#FFFFFF" stroke-width="7" />
    <circle cx="3361.4" cy="745.1" r="19" fill="#0F172A" stroke="#FFFFFF" stroke-width="7" />
    <circle cx="2986.9" cy="988.9" r="19" fill="#0F172A" stroke="#FFFFFF" stroke-width="7" />
    <circle cx="1137.4" cy="1051.6" r="19" fill="#0F172A" stroke="#FFFFFF" stroke-width="7" />
    <circle cx="2771.3" cy="581.4" r="19" fill="#0F172A" stroke="#FFFFFF" stroke-width="7" />
    <circle cx="936.3" cy="1090.6" r="19" fill="#0F172A" stroke="#FFFFFF" stroke-width="7" />
    <circle cx="3316.6" cy="1115.0" r="19" fill="#0F172A" stroke="#FFFFFF" stroke-width="7" />
    <circle cx="324.6" cy="862.8" r="19" fill="#0F172A" stroke="#FFFFFF" stroke-width="7" />
    <circle cx="285.0" cy="1425.7" r="19" fill="#0F172A" stroke="#FFFFFF" stroke-width="7" />
    <circle cx="2982.2" cy="1385.3" r="19" fill="#0F172A" stroke="#FFFFFF" stroke-width="7" />
    <circle cx="1359.4" cy="1563.7" r="19" fill="#0F172A" stroke="#FFFFFF" stroke-width="7" />
    <circle cx="2945.4" cy="1696.4" r="19" fill="#0F172A" stroke="#FFFFFF" stroke-width="7" />
    <circle cx="2171.8" cy="1329.3" r="19" fill="#0F172A" stroke="#FFFFFF" stroke-width="7" />
    <circle cx="2174.0" cy="616.2" r="19" fill="#0F172A" stroke="#FFFFFF" stroke-width="7" />
    <circle cx="1799.9" cy="1969.9" r="19" fill="#0F172A" stroke="#FFFFFF" stroke-width="7" />
    <circle cx="2197.7" cy="1492.5" r="19" fill="#0F172A" stroke="#FFFFFF" stroke-width="7" />
    <circle cx="495.7" cy="1584.9" r="19" fill="#0F172A" stroke="#FFFFFF" stroke-width="7" />
    <circle cx="517.5" cy="844.9" r="19" fill="#0F172A" stroke="#FFFFFF" stroke-width="7" />
    <circle cx="2321.9" cy="1051.8" r="19" fill="#0F172A" stroke="#FFFFFF" stroke-width="7" />
    <circle cx="1363.9" cy="1101.7" r="19" fill="#0F172A" stroke="#FFFFFF" stroke-width="7" />
    <circle cx="1911.7" cy="652.7" r="19" fill="#0F172A" stroke="#FFFFFF" stroke-width="7" />
    <circle cx="998.8" cy="601.8" r="19" fill="#0F172A" stroke="#FFFFFF" stroke-width="7" />
    <circle cx="3571.1" cy="716.3" r="19" fill="#0F172A" stroke="#FFFFFF" stroke-width="7" />
    <circle cx="1289.6" cy="842.3" r="19" fill="#0F172A" stroke="#FFFFFF" stroke-width="7" />
    <circle cx="2696.8" cy="761.9" r="19" fill="#0F172A" stroke="#FFFFFF" stroke-width="7" />
    <circle cx="702.1" cy="1943.4" r="19" fill="#0F172A" stroke="#FFFFFF" stroke-width="7" />
    <circle cx="2400.5" cy="1666.9" r="19" fill="#0F172A" stroke="#FFFFFF" stroke-width="7" />
    <circle cx="3166.6" cy="1772.7" r="19" fill="#0F172A" stroke="#FFFFFF" stroke-width="7" />
    <circle cx="3611.6" cy="990.6" r="19" fill="#0F172A" stroke="#FFFFFF" stroke-width="7" />
    <circle cx="651.5" cy="1279.2" r="19" fill="#0F172A" stroke="#FFFFFF" stroke-width="7" />
    <circle cx="1942.4" cy="1467.8" r="19" fill="#0F172A" stroke="#FFFFFF" stroke-width="7" />
    <circle cx="3346.0" cy="1788.9" r="19" fill="#0F172A" stroke="#FFFFFF" stroke-width="7" />
    <circle cx="2395.3" cy="1897.8" r="19" fill="#0F172A" stroke="#FFFFFF" stroke-width="7" />
    <circle cx="934.6" cy="923.9" r="19" fill="#0F172A" stroke="#FFFFFF" stroke-width="7" />
    <circle cx="2512.2" cy="831.5" r="19" fill="#0F172A" stroke="#FFFFFF" stroke-width="7" />
    <circle cx="921.4" cy="1880.0" r="19" fill="#0F172A" stroke="#FFFFFF" stroke-width="7" />
    <circle cx="1113.9" cy="1727.7" r="19" fill="#0F172A" stroke="#FFFFFF" stroke-width="7" />
    <circle cx="1891.5" cy="804.1" r="19" fill="#0F172A" stroke="#FFFFFF" stroke-width="7" />
    <circle cx="2797.0" cy="870.9" r="19" fill="#0F172A" stroke="#FFFFFF" stroke-width="7" />
    <circle cx="1723.4" cy="989.4" r="19" fill="#0F172A" stroke="#FFFFFF" stroke-width="7" />
    <circle cx="590.2" cy="1850.3" r="19" fill="#0F172A" stroke="#FFFFFF" stroke-width="7" />
    <circle cx="2358.7" cy="1318.8" r="19" fill="#0F172A" stroke="#FFFFFF" stroke-width="7" />
    <circle cx="3536.0" cy="1126.0" r="19" fill="#0F172A" stroke="#FFFFFF" stroke-width="7" />
    <circle cx="905.8" cy="1250.1" r="19" fill="#0F172A" stroke="#FFFFFF" stroke-width="7" />
    <circle cx="3327.7" cy="1930.4" r="19" fill="#0F172A" stroke="#FFFFFF" stroke-width="7" />
    <circle cx="1943.7" cy="1623.3" r="19" fill="#0F172A" stroke="#FFFFFF" stroke-width="7" />
    <circle cx="1874.2" cy="1260.2" r="19" fill="#0F172A" stroke="#FFFFFF" stroke-width="7" />
    <circle cx="312.3" cy="1740.9" r="19" fill="#0F172A" stroke="#FFFFFF" stroke-width="7" />
    <circle cx="3270.4" cy="969.2" r="19" fill="#0F172A" stroke="#FFFFFF" stroke-width="7" />
    <circle cx="2473.1" cy="1408.7" r="19" fill="#0F172A" stroke="#FFFFFF" stroke-width="7" />
    <circle cx="531.7" cy="1014.6" r="19" fill="#0F172A" stroke="#FFFFFF" stroke-width="7" />
    <circle cx="3432.6" cy="1544.1" r="19" fill="#0F172A" stroke="#FFFFFF" stroke-width="7" />
    <circle cx="774.7" cy="903.1" r="19" fill="#0F172A" stroke="#FFFFFF" stroke-width="7" />
    <circle cx="3090.9" cy="1912.3" r="19" fill="#0F172A" stroke="#FFFFFF" stroke-width="7" />
    <circle cx="1102.0" cy="1570.3" r="19" fill="#0F172A" stroke="#FFFFFF" stroke-width="7" />
  </g>
  <g font-family="Arial, sans-serif" font-size="47" fill="#64748B"><text x="227" y="2205">Each region contains all points closest to its dark site marker.</text><text x="3083" y="2205">sites: 69</text></g>
</svg>
