<svg xmlns="http://www.w3.org/2000/svg" width="3840" height="2400" viewBox="0 0 3840 2400" role="img" aria-labelledby="title description">
  <title id="title">Voronoi diagram with 57 sites</title>
  <desc id="description">A high-resolution 3840x2400 clipped Voronoi diagram with 57 sites. Seed: 1789726707.</desc>
  <defs>
    <linearGradient id="background" x1="0" y1="0" x2="1" y2="1"><stop stop-color="#F8FAFC"/><stop offset="1" stop-color="#E0F2FE"/></linearGradient>
    <filter id="shadow" x="-5%" y="-5%" width="110%" height="110%"><feDropShadow dx="0" dy="15" stdDeviation="22" flood-color="#0F172A" flood-opacity=".12"/></filter>
  </defs>
  <rect width="3840" height="2400" fill="url(#background)"/>
  <rect x="120" y="120" width="3600" height="2160" rx="63" fill="#FFFFFF" filter="url(#shadow)"/>
  <g font-family="Arial, sans-serif"><text x="227" y="296" font-size="101" font-weight="700" fill="#0F172A">Voronoi Diagram</text><text x="227" y="397" font-size="56" fill="#475569">57 sites · generated with seed 1789726707 · Ultra HD (3840x2400)</text></g>
  <g stroke="#FFFFFF" stroke-width="7" stroke-linejoin="round">
    <polygon points="120.0,1747.2 120.0,1156.2 349.5,1356.2 412.4,1514.9 338.9,1690.6" fill="#38BDF8" fill-opacity="0.65" />
    <polygon points="2421.4,1800.7 2096.0,1812.0 2000.0,1664.6 2373.6,1478.3 2478.8,1592.0 2453.4,1765.1" fill="#A78BFA" fill-opacity="0.65" />
    <polygon points="689.9,945.9 618.1,1066.8 221.8,1080.0 498.4,773.1" fill="#F472B6" fill-opacity="0.65" />
    <polygon points="754.7,1942.0 392.8,1777.2 338.9,1690.6 412.4,1514.9 554.7,1557.4" fill="#FB923C" fill-opacity="0.65" />
    <polygon points="498.4,773.1 221.8,1080.0 120.0,1136.4 120.0,505.0 526.4,505.0" fill="#FACC15" fill-opacity="0.65" />
    <polygon points="1093.6,1524.0 968.6,1174.2 1019.2,1070.4 1040.2,1055.8 1409.6,1236.8 1416.2,1278.6" fill="#4ADE80" fill-opacity="0.65" />
    <polygon points="1611.8,759.8 1580.0,946.7 1536.9,982.1 1285.7,791.6 1423.4,531.4" fill="#2DD4BF" fill-opacity="0.65" />
    <polygon points="392.8,1777.2 754.7,1942.0 877.6,2053.0 283.9,2053.0" fill="#60A5FA" fill-opacity="0.65" />
    <polygon points="1423.4,531.4 1285.7,791.6 1123.6,834.5 1042.0,732.8 1031.0,505.0 1427.7,505.0" fill="#E879F9" fill-opacity="0.65" />
    <polygon points="1749.0,1165.0 1766.9,1298.3 1476.3,1342.6 1416.2,1278.6 1409.6,1236.8 1533.1,1023.7" fill="#34D399" fill-opacity="0.65" />
    <polygon points="705.8,1261.3 737.7,1275.3 750.7,1469.2 554.7,1557.4 412.4,1514.9 349.5,1356.2" fill="#F87171" fill-opacity="0.65" />
    <polygon points="2319.8,1292.5 2414.8,1150.4 2596.3,1121.5 2664.3,1172.0 2613.3,1537.3 2478.8,1592.0 2373.6,1478.3" fill="#818CF8" fill-opacity="0.65" />
    <polygon points="1674.9,1691.5 1905.1,1596.5 2000.0,1664.6 2096.0,1812.0 2042.1,2053.0 1747.8,2053.0" fill="#FBBF24" fill-opacity="0.65" />
    <polygon points="2672.1,557.7 2384.8,750.7 2113.1,742.0 2024.6,508.7 2024.5,505.0 2671.6,505.0" fill="#A3E635" fill-opacity="0.65" />
    <polygon points="1513.1,1697.5 1570.1,1668.3 1674.9,1691.5 1747.8,2053.0 1391.9,2053.0" fill="#C084FC" fill-opacity="0.65" />
    <polygon points="1533.1,1023.7 1409.6,1236.8 1040.2,1055.8 1123.6,834.5 1285.7,791.6 1536.9,982.1" fill="#FB7185" fill-opacity="0.65" />
    <polygon points="2024.6,508.7 2113.1,742.0 2050.8,921.3 1975.0,976.0 1831.4,905.7 1800.9,724.7" fill="#22D3EE" fill-opacity="0.65" />
    <polygon points="1570.1,1668.3 1513.1,1697.5 1055.2,1673.6 1093.6,1524.0 1416.2,1278.6 1476.3,1342.6" fill="#86EFAC" fill-opacity="0.65" />
    <polygon points="2050.8,921.3 2113.1,742.0 2384.8,750.7 2353.2,1059.9" fill="#FCD34D" fill-opacity="0.65" />
    <polygon points="2803.1,1707.7 2752.5,1868.0 2453.4,1765.1 2478.8,1592.0 2613.3,1537.3 2688.7,1547.3" fill="#38BDF8" fill-opacity="0.65" />
    <polygon points="1042.0,732.8 808.2,722.6 587.2,505.0 1031.0,505.0" fill="#38BDF8" fill-opacity="0.65" />
    <polygon points="120.0,1747.2 338.9,1690.6 392.8,1777.2 283.9,2053.0 120.0,2053.0" fill="#A78BFA" fill-opacity="0.65" />
    <polygon points="3086.7,1728.2 3246.2,1494.0 3270.1,1496.2 3376.2,1792.8 3320.9,2019.0" fill="#F472B6" fill-opacity="0.65" />
    <polygon points="3160.7,701.2 3319.6,804.8 3323.5,832.0 3150.7,1059.7 3068.5,1078.5 2932.8,796.7" fill="#FB923C" fill-opacity="0.65" />
    <polygon points="1055.2,1673.6 1024.1,1702.2 750.7,1469.2 737.7,1275.3 968.6,1174.2 1093.6,1524.0" fill="#FACC15" fill-opacity="0.65" />
    <polygon points="2932.8,796.7 3068.5,1078.5 2972.1,1245.9 2664.3,1172.0 2596.3,1121.5 2726.9,667.4" fill="#4ADE80" fill-opacity="0.65" />
    <polygon points="2726.9,667.4 2596.3,1121.5 2414.8,1150.4 2353.2,1059.9 2384.8,750.7 2672.1,557.7" fill="#2DD4BF" fill-opacity="0.65" />
    <polygon points="2933.6,1662.0 2954.7,1393.1 2994.9,1334.6 3246.2,1494.0 3086.7,1728.2 3023.5,1734.3" fill="#60A5FA" fill-opacity="0.65" />
    <polygon points="754.7,1942.0 554.7,1557.4 750.7,1469.2 1024.1,1702.2 882.5,2053.0 877.6,2053.0" fill="#E879F9" fill-opacity="0.65" />
    <polygon points="3320.9,2019.0 3376.2,1792.8 3720.0,1615.5 3720.0,2053.0 3324.0,2053.0" fill="#34D399" fill-opacity="0.65" />
    <polygon points="3501.9,935.5 3323.5,832.0 3319.6,804.8 3537.2,505.0 3720.0,505.0 3720.0,857.2" fill="#F87171" fill-opacity="0.65" />
    <polygon points="2045.5,1297.5 1971.8,998.5 1975.0,976.0 2050.8,921.3 2353.2,1059.9 2414.8,1150.4 2319.8,1292.5" fill="#818CF8" fill-opacity="0.65" />
    <polygon points="740.9,935.0 808.2,722.6 1042.0,732.8 1123.6,834.5 1040.2,1055.8 1019.2,1070.4" fill="#FBBF24" fill-opacity="0.65" />
    <polygon points="1928.6,1424.3 1766.9,1298.3 1749.0,1165.0 1971.8,998.5 2045.5,1297.5" fill="#A3E635" fill-opacity="0.65" />
    <polygon points="1712.1,691.8 1611.8,759.8 1423.4,531.4 1427.7,505.0 1667.9,505.0" fill="#C084FC" fill-opacity="0.65" />
    <polygon points="1905.1,1596.5 1674.9,1691.5 1570.1,1668.3 1476.3,1342.6 1766.9,1298.3 1928.6,1424.3" fill="#FB7185" fill-opacity="0.65" />
    <polygon points="2096.0,1812.0 2421.4,1800.7 2434.7,2053.0 2042.1,2053.0" fill="#22D3EE" fill-opacity="0.65" />
    <polygon points="2421.4,1800.7 2453.4,1765.1 2752.5,1868.0 2860.6,2053.0 2434.7,2053.0" fill="#86EFAC" fill-opacity="0.65" />
    <polygon points="1831.4,905.7 1975.0,976.0 1971.8,998.5 1749.0,1165.0 1533.1,1023.7 1536.9,982.1 1580.0,946.7" fill="#FCD34D" fill-opacity="0.65" />
    <polygon points="3023.5,1734.3 3086.7,1728.2 3320.9,2019.0 3324.0,2053.0 2860.7,2053.0" fill="#38BDF8" fill-opacity="0.65" />
    <polygon points="808.2,722.6 740.9,935.0 689.9,945.9 498.4,773.1 526.4,505.0 587.2,505.0" fill="#38BDF8" fill-opacity="0.65" />
    <polygon points="2972.1,1245.9 2994.9,1334.6 2954.7,1393.1 2688.7,1547.3 2613.3,1537.3 2664.3,1172.0" fill="#A78BFA" fill-opacity="0.65" />
    <polygon points="3376.2,1792.8 3270.1,1496.2 3393.9,1432.3 3720.0,1439.0 3720.0,1615.5" fill="#F472B6" fill-opacity="0.65" />
    <polygon points="705.8,1261.3 349.5,1356.2 120.0,1156.2 120.0,1136.4 221.8,1080.0 618.1,1066.8" fill="#FB923C" fill-opacity="0.65" />
    <polygon points="2954.7,1393.1 2933.6,1662.0 2803.1,1707.7 2688.7,1547.3" fill="#FACC15" fill-opacity="0.65" />
    <polygon points="3444.6,1092.7 3348.6,1135.1 3150.7,1059.7 3323.5,832.0 3501.9,935.5" fill="#4ADE80" fill-opacity="0.65" />
    <polygon points="1024.1,1702.2 1055.2,1673.6 1513.1,1697.5 1391.9,2053.0 882.5,2053.0" fill="#2DD4BF" fill-opacity="0.65" />
    <polygon points="3348.6,1135.1 3393.9,1432.3 3270.1,1496.2 3246.2,1494.0 2994.9,1334.6 2972.1,1245.9 3068.5,1078.5 3150.7,1059.7" fill="#60A5FA" fill-opacity="0.65" />
    <polygon points="1905.1,1596.5 1928.6,1424.3 2045.5,1297.5 2319.8,1292.5 2373.6,1478.3 2000.0,1664.6" fill="#E879F9" fill-opacity="0.65" />
    <polygon points="1712.1,691.8 1800.9,724.7 1831.4,905.7 1580.0,946.7 1611.8,759.8" fill="#34D399" fill-opacity="0.65" />
    <polygon points="3160.7,701.2 2932.8,796.7 2726.9,667.4 2672.1,557.7 2671.6,505.0 3202.1,505.0" fill="#F87171" fill-opacity="0.65" />
    <polygon points="2752.5,1868.0 2803.1,1707.7 2933.6,1662.0 3023.5,1734.3 2860.7,2053.0 2860.6,2053.0" fill="#818CF8" fill-opacity="0.65" />
    <polygon points="2024.6,508.7 1800.9,724.7 1712.1,691.8 1667.9,505.0 2024.5,505.0" fill="#FBBF24" fill-opacity="0.65" />
    <polygon points="3319.6,804.8 3160.7,701.2 3202.1,505.0 3537.2,505.0" fill="#A3E635" fill-opacity="0.65" />
    <polygon points="3444.6,1092.7 3501.9,935.5 3720.0,857.2 3720.0,1274.9" fill="#C084FC" fill-opacity="0.65" />
    <polygon points="3393.9,1432.3 3348.6,1135.1 3444.6,1092.7 3720.0,1274.9 3720.0,1439.0" fill="#FB7185" fill-opacity="0.65" />
    <polygon points="740.9,935.0 1019.2,1070.4 968.6,1174.2 737.7,1275.3 705.8,1261.3 618.1,1066.8 689.9,945.9" fill="#22D3EE" fill-opacity="0.65" />
  </g>
  <g>
    <circle cx="200.6" cy="1574.0" r="20" fill="#0F172A" stroke="#FFFFFF" stroke-width="7" />
    <circle cx="2251.2" cy="1641.6" r="20" fill="#0F172A" stroke="#FFFFFF" stroke-width="7" />
    <circle cx="537.6" cy="959.7" r="20" fill="#0F172A" stroke="#FFFFFF" stroke-width="7" />
    <circle cx="519.1" cy="1707.2" r="20" fill="#0F172A" stroke="#FFFFFF" stroke-width="7" />
    <circle cx="308.7" cy="753.3" r="20" fill="#0F172A" stroke="#FFFFFF" stroke-width="7" />
    <circle cx="1172.2" cy="1291.5" r="20" fill="#0F172A" stroke="#FFFFFF" stroke-width="7" />
    <circle cx="1507.3" cy="752.0" r="20" fill="#0F172A" stroke="#FFFFFF" stroke-width="7" />
    <circle cx="422.9" cy="1918.3" r="20" fill="#0F172A" stroke="#FFFFFF" stroke-width="7" />
    <circle cx="1193.9" cy="586.1" r="20" fill="#0F172A" stroke="#FFFFFF" stroke-width="7" />
    <circle cx="1652.2" cy="1215.7" r="20" fill="#0F172A" stroke="#FFFFFF" stroke-width="7" />
    <circle cx="607.1" cy="1412.7" r="20" fill="#0F172A" stroke="#FFFFFF" stroke-width="7" />
    <circle cx="2545.9" cy="1368.8" r="20" fill="#0F172A" stroke="#FFFFFF" stroke-width="7" />
    <circle cx="1877.4" cy="1885.0" r="20" fill="#0F172A" stroke="#FFFFFF" stroke-width="7" />
    <circle cx="2277.6" cy="613.0" r="20" fill="#0F172A" stroke="#FFFFFF" stroke-width="7" />
    <circle cx="1563.3" cy="1948.4" r="20" fill="#0F172A" stroke="#FFFFFF" stroke-width="7" />
    <circle cx="1307.4" cy="1015.7" r="20" fill="#0F172A" stroke="#FFFFFF" stroke-width="7" />
    <circle cx="1904.4" cy="754.6" r="20" fill="#0F172A" stroke="#FFFFFF" stroke-width="7" />
    <circle cx="1338.7" cy="1510.3" r="20" fill="#0F172A" stroke="#FFFFFF" stroke-width="7" />
    <circle cx="2269.0" cy="881.3" r="20" fill="#0F172A" stroke="#FFFFFF" stroke-width="7" />
    <circle cx="2682.6" cy="1704.9" r="20" fill="#0F172A" stroke="#FFFFFF" stroke-width="7" />
    <circle cx="876.7" cy="601.4" r="20" fill="#0F172A" stroke="#FFFFFF" stroke-width="7" />
    <circle cx="274.4" cy="1859.6" r="20" fill="#0F172A" stroke="#FFFFFF" stroke-width="7" />
    <circle cx="3216.4" cy="1730.3" r="20" fill="#0F172A" stroke="#FFFFFF" stroke-width="7" />
    <circle cx="3164.3" cy="835.2" r="20" fill="#0F172A" stroke="#FFFFFF" stroke-width="7" />
    <circle cx="885.5" cy="1394.0" r="20" fill="#0F172A" stroke="#FFFFFF" stroke-width="7" />
    <circle cx="2818.4" cy="1001.7" r="20" fill="#0F172A" stroke="#FFFFFF" stroke-width="7" />
    <circle cx="2471.8" cy="902.0" r="20" fill="#0F172A" stroke="#FFFFFF" stroke-width="7" />
    <circle cx="3037.2" cy="1608.3" r="20" fill="#0F172A" stroke="#FFFFFF" stroke-width="7" />
    <circle cx="697.8" cy="1614.2" r="20" fill="#0F172A" stroke="#FFFFFF" stroke-width="7" />
    <circle cx="3546.9" cy="1811.2" r="20" fill="#0F172A" stroke="#FFFFFF" stroke-width="7" />
    <circle cx="3477.2" cy="790.2" r="20" fill="#0F172A" stroke="#FFFFFF" stroke-width="7" />
    <circle cx="2162.9" cy="1112.8" r="20" fill="#0F172A" stroke="#FFFFFF" stroke-width="7" />
    <circle cx="865.9" cy="849.4" r="20" fill="#0F172A" stroke="#FFFFFF" stroke-width="7" />
    <circle cx="1855.8" cy="1188.5" r="20" fill="#0F172A" stroke="#FFFFFF" stroke-width="7" />
    <circle cx="1624.0" cy="655.8" r="20" fill="#0F172A" stroke="#FFFFFF" stroke-width="7" />
    <circle cx="1682.1" cy="1411.4" r="20" fill="#0F172A" stroke="#FFFFFF" stroke-width="7" />
    <circle cx="2262.7" cy="1971.1" r="20" fill="#0F172A" stroke="#FFFFFF" stroke-width="7" />
    <circle cx="2597.1" cy="1953.5" r="20" fill="#0F172A" stroke="#FFFFFF" stroke-width="7" />
    <circle cx="1756.7" cy="1055.9" r="20" fill="#0F172A" stroke="#FFFFFF" stroke-width="7" />
    <circle cx="3061.2" cy="1855.3" r="20" fill="#0F172A" stroke="#FFFFFF" stroke-width="7" />
    <circle cx="688.0" cy="793.0" r="20" fill="#0F172A" stroke="#FFFFFF" stroke-width="7" />
    <circle cx="2724.3" cy="1393.7" r="20" fill="#0F172A" stroke="#FFFFFF" stroke-width="7" />
    <circle cx="3460.2" cy="1643.1" r="20" fill="#0F172A" stroke="#FFFFFF" stroke-width="7" />
    <circle cx="544.9" cy="1179.0" r="20" fill="#0F172A" stroke="#FFFFFF" stroke-width="7" />
    <circle cx="2839.7" cy="1592.8" r="20" fill="#0F172A" stroke="#FFFFFF" stroke-width="7" />
    <circle cx="3363.3" cy="986.2" r="20" fill="#0F172A" stroke="#FFFFFF" stroke-width="7" />
    <circle cx="1320.1" cy="1865.5" r="20" fill="#0F172A" stroke="#FFFFFF" stroke-width="7" />
    <circle cx="3260.5" cy="1256.1" r="20" fill="#0F172A" stroke="#FFFFFF" stroke-width="7" />
    <circle cx="2169.5" cy="1477.8" r="20" fill="#0F172A" stroke="#FFFFFF" stroke-width="7" />
    <circle cx="1712.9" cy="787.0" r="20" fill="#0F172A" stroke="#FFFFFF" stroke-width="7" />
    <circle cx="3067.7" cy="604.6" r="20" fill="#0F172A" stroke="#FFFFFF" stroke-width="7" />
    <circle cx="2903.4" cy="1774.7" r="20" fill="#0F172A" stroke="#FFFFFF" stroke-width="7" />
    <circle cx="1774.7" cy="620.2" r="20" fill="#0F172A" stroke="#FFFFFF" stroke-width="7" />
    <circle cx="3284.7" cy="650.5" r="20" fill="#0F172A" stroke="#FFFFFF" stroke-width="7" />
    <circle cx="3575.3" cy="1063.5" r="20" fill="#0F172A" stroke="#FFFFFF" stroke-width="7" />
    <circle cx="3468.8" cy="1224.4" r="20" fill="#0F172A" stroke="#FFFFFF" stroke-width="7" />
    <circle cx="750.7" cy="1086.2" r="20" fill="#0F172A" stroke="#FFFFFF" stroke-width="7" />
  </g>
  <g font-family="Arial, sans-serif" font-size="47" fill="#64748B"><text x="227" y="2205">Each region contains all points closest to its dark site marker.</text><text x="3083" y="2205">sites: 57</text></g>
</svg>
