<svg xmlns="http://www.w3.org/2000/svg" width="3840" height="2400" viewBox="0 0 3840 2400" role="img" aria-labelledby="title description">
  <title id="title">Voronoi diagram with 80 sites</title>
  <desc id="description">A high-resolution 3840x2400 clipped Voronoi diagram with 80 sites. Seed: 1789984640.</desc>
  <defs>
    <linearGradient id="background" x1="0" y1="0" x2="1" y2="1"><stop stop-color="#F8FAFC"/><stop offset="1" stop-color="#E0F2FE"/></linearGradient>
    <filter id="shadow" x="-5%" y="-5%" width="110%" height="110%"><feDropShadow dx="0" dy="15" stdDeviation="22" flood-color="#0F172A" flood-opacity=".12"/></filter>
  </defs>
  <rect width="3840" height="2400" fill="url(#background)"/>
  <rect x="120" y="120" width="3600" height="2160" rx="63" fill="#FFFFFF" filter="url(#shadow)"/>
  <g font-family="Arial, sans-serif"><text x="227" y="296" font-size="101" font-weight="700" fill="#0F172A">Voronoi Diagram</text><text x="227" y="397" font-size="56" fill="#475569">80 sites · generated with seed 1789984640 · Ultra HD (3840x2400)</text></g>
  <g stroke="#FFFFFF" stroke-width="7" stroke-linejoin="round">
    <polygon points="655.4,1543.9 598.7,1731.6 552.5,1769.5 120.0,1728.4 120.0,1502.6 520.1,1438.0" fill="#38BDF8" fill-opacity="0.65" />
    <polygon points="1531.1,2042.3 1441.1,1856.8 1526.7,1743.1 1642.1,1740.1 1658.7,1766.0" fill="#A78BFA" fill-opacity="0.65" />
    <polygon points="2252.7,876.9 2271.6,883.9 2163.7,1159.2 2005.3,1061.4 2014.4,952.8" fill="#F472B6" fill-opacity="0.65" />
    <polygon points="1822.5,1913.5 2191.3,1881.8 2202.9,2053.0 1803.5,2053.0" fill="#FB923C" fill-opacity="0.65" />
    <polygon points="1451.1,1224.3 1581.5,1165.8 1748.6,1296.5 1728.2,1406.9 1633.9,1497.5 1523.0,1459.8" fill="#FACC15" fill-opacity="0.65" />
    <polygon points="2973.8,1143.9 3080.2,1069.3 3209.2,1085.3 3260.1,1132.8 3229.4,1400.3 2954.6,1312.7 2919.2,1240.0" fill="#4ADE80" fill-opacity="0.65" />
    <polygon points="1913.0,866.1 2014.4,952.8 2005.3,1061.4 1898.4,1155.1 1686.8,958.7" fill="#2DD4BF" fill-opacity="0.65" />
    <polygon points="2316.2,1224.2 2377.6,1163.5 2487.9,1156.0 2600.6,1232.3 2392.5,1404.9" fill="#60A5FA" fill-opacity="0.65" />
    <polygon points="1071.1,1803.4 1001.3,1585.8 1059.2,1492.0 1198.9,1440.1 1429.5,1528.4 1410.4,1654.0" fill="#E879F9" fill-opacity="0.65" />
    <polygon points="2712.4,1285.6 2645.7,1641.0 2578.3,1683.3 2426.7,1651.2 2374.9,1559.4 2392.5,1404.9 2600.6,1232.3 2654.0,1238.6" fill="#34D399" fill-opacity="0.65" />
    <polygon points="467.5,1019.8 477.3,1020.8 566.0,1265.7 520.1,1438.0 120.0,1502.6 120.0,1163.3" fill="#F87171" fill-opacity="0.65" />
    <polygon points="3189.7,675.4 3069.4,783.7 2884.9,712.8 2760.0,505.0 3220.7,505.0" fill="#818CF8" fill-opacity="0.65" />
    <polygon points="2302.6,882.7 2493.4,903.7 2524.4,929.4 2487.9,1156.0 2377.6,1163.5" fill="#FBBF24" fill-opacity="0.65" />
    <polygon points="2884.9,712.8 2860.8,861.3 2786.9,904.6 2713.1,853.6 2682.8,505.0 2760.0,505.0" fill="#A3E635" fill-opacity="0.65" />
    <polygon points="2713.1,853.6 2786.9,904.6 2782.9,993.2 2674.1,1046.8 2546.8,934.0" fill="#C084FC" fill-opacity="0.65" />
    <polygon points="1070.1,1854.9 1441.1,1856.8 1531.1,2042.3 1531.3,2053.0 1017.2,2053.0" fill="#FB7185" fill-opacity="0.65" />
    <polygon points="3346.5,1744.7 3358.9,1507.1 3720.0,1565.9 3720.0,1574.8" fill="#22D3EE" fill-opacity="0.65" />
    <polygon points="836.2,1541.8 785.6,1200.4 861.7,1121.4 998.3,1147.5 1016.3,1178.6 1059.2,1492.0 1001.3,1585.8" fill="#86EFAC" fill-opacity="0.65" />
    <polygon points="2183.2,1213.6 2095.6,1330.2 2000.6,1330.5 1892.0,1234.6 1898.4,1155.1 2005.3,1061.4 2163.7,1159.2" fill="#FCD34D" fill-opacity="0.65" />
    <polygon points="2524.4,929.4 2546.8,934.0 2674.1,1046.8 2654.0,1238.6 2600.6,1232.3 2487.9,1156.0" fill="#38BDF8" fill-opacity="0.65" />
    <polygon points="120.0,1728.4 552.5,1769.5 496.9,2053.0 120.0,2053.0" fill="#38BDF8" fill-opacity="0.65" />
    <polygon points="3320.0,873.5 3209.2,1085.3 3080.2,1069.3 3045.5,961.2 3069.4,783.7 3189.7,675.4" fill="#A78BFA" fill-opacity="0.65" />
    <polygon points="3108.6,1587.1 3098.3,1616.2 2877.7,1673.9 2791.6,1642.8 2958.6,1380.1" fill="#F472B6" fill-opacity="0.65" />
    <polygon points="519.1,679.4 557.4,904.7 527.5,982.5 477.3,1020.8 467.5,1019.8 120.0,566.6 120.0,505.0 352.0,505.0" fill="#FB923C" fill-opacity="0.65" />
    <polygon points="3208.6,1790.5 3340.9,1753.8 3448.9,1855.8 3450.9,2053.0 3107.0,2053.0" fill="#FACC15" fill-opacity="0.65" />
    <polygon points="2578.3,1683.3 2645.7,1641.0 2791.6,1642.8 2877.7,1673.9 3024.5,2053.0 2662.1,2053.0" fill="#4ADE80" fill-opacity="0.65" />
    <polygon points="2316.2,1224.2 2392.5,1404.9 2374.9,1559.4 2180.5,1469.1 2095.6,1330.2 2183.2,1213.6" fill="#2DD4BF" fill-opacity="0.65" />
    <polygon points="1932.7,754.0 2117.6,691.7 2252.7,876.9 2014.4,952.8 1913.0,866.1" fill="#60A5FA" fill-opacity="0.65" />
    <polygon points="959.6,659.3 801.3,802.4 771.7,787.5 724.0,680.2 792.4,505.0 920.6,505.0" fill="#E879F9" fill-opacity="0.65" />
    <polygon points="771.7,787.5 801.3,802.4 841.2,864.9 805.9,1038.2 527.5,982.5 557.4,904.7" fill="#34D399" fill-opacity="0.65" />
    <polygon points="3562.1,1183.6 3260.1,1132.8 3209.2,1085.3 3320.0,873.5 3439.4,847.8 3720.0,1142.6 3720.0,1164.6" fill="#F87171" fill-opacity="0.65" />
    <polygon points="724.0,680.2 771.7,787.5 557.4,904.7 519.1,679.4" fill="#818CF8" fill-opacity="0.65" />
    <polygon points="2180.5,1469.1 2374.9,1559.4 2426.7,1651.2 2202.9,1838.0 1974.5,1657.5 1968.4,1635.2" fill="#FBBF24" fill-opacity="0.65" />
    <polygon points="1410.4,1654.0 1429.5,1528.4 1523.0,1459.8 1633.9,1497.5 1676.5,1621.8 1642.1,1740.1 1526.7,1743.1" fill="#A3E635" fill-opacity="0.65" />
    <polygon points="1929.1,1593.8 1968.4,1635.2 1974.5,1657.5 1802.6,1857.3 1658.7,1766.0 1642.1,1740.1 1676.5,1621.8" fill="#C084FC" fill-opacity="0.65" />
    <polygon points="1680.0,958.1 1686.8,958.7 1898.4,1155.1 1892.0,1234.6 1748.6,1296.5 1581.5,1165.8" fill="#FB7185" fill-opacity="0.65" />
    <polygon points="552.5,1769.5 598.7,1731.6 908.1,2053.0 496.9,2053.0" fill="#22D3EE" fill-opacity="0.65" />
    <polygon points="724.0,680.2 519.1,679.4 352.0,505.0 792.4,505.0" fill="#86EFAC" fill-opacity="0.65" />
    <polygon points="1392.1,1209.6 1451.1,1224.3 1523.0,1459.8 1429.5,1528.4 1198.9,1440.1" fill="#FCD34D" fill-opacity="0.65" />
    <polygon points="988.9,864.6 1082.9,766.2 1146.8,764.3 1167.3,775.1 1163.5,999.2 1041.4,1074.4" fill="#38BDF8" fill-opacity="0.65" />
    <polygon points="785.6,1200.4 836.2,1541.8 655.4,1543.9 520.1,1438.0 566.0,1265.7" fill="#38BDF8" fill-opacity="0.65" />
    <polygon points="1070.1,1854.9 1071.1,1803.4 1410.4,1654.0 1526.7,1743.1 1441.1,1856.8" fill="#A78BFA" fill-opacity="0.65" />
    <polygon points="467.5,1019.8 120.0,1163.3 120.0,566.6" fill="#F472B6" fill-opacity="0.65" />
    <polygon points="1531.1,2042.3 1658.7,1766.0 1802.6,1857.3 1822.5,1913.5 1803.5,2053.0 1531.3,2053.0" fill="#FB923C" fill-opacity="0.65" />
    <polygon points="2877.7,1673.9 3098.3,1616.2 3208.6,1790.5 3107.0,2053.0 3024.5,2053.0" fill="#FACC15" fill-opacity="0.65" />
    <polygon points="3358.9,1507.1 3326.3,1476.8 3562.1,1183.6 3720.0,1164.6 3720.0,1565.9" fill="#4ADE80" fill-opacity="0.65" />
    <polygon points="2958.6,1380.1 2791.6,1642.8 2645.7,1641.0 2712.4,1285.6 2919.2,1240.0 2954.6,1312.7" fill="#2DD4BF" fill-opacity="0.65" />
    <polygon points="2302.5,882.6 2271.6,883.9 2252.7,876.9 2117.6,691.7 2151.6,505.0 2432.4,505.0" fill="#60A5FA" fill-opacity="0.65" />
    <polygon points="1146.8,764.3 1082.9,766.2 959.6,659.3 920.6,505.0 1157.2,505.0" fill="#E879F9" fill-opacity="0.65" />
    <polygon points="3448.9,1855.8 3720.0,1745.2 3720.0,2053.0 3450.9,2053.0" fill="#34D399" fill-opacity="0.65" />
    <polygon points="2782.9,993.2 2786.9,904.6 2860.8,861.3 3045.5,961.2 3080.2,1069.3 2973.8,1143.9" fill="#F87171" fill-opacity="0.65" />
    <polygon points="2117.6,691.7 1932.7,754.0 1808.5,589.4 1813.7,505.0 2151.6,505.0" fill="#818CF8" fill-opacity="0.65" />
    <polygon points="1376.5,1191.0 1329.6,1042.6 1366.2,963.3 1623.4,885.9 1680.0,958.1 1581.5,1165.8 1451.1,1224.3 1392.1,1209.6" fill="#FBBF24" fill-opacity="0.65" />
    <polygon points="1802.6,1857.3 1974.5,1657.5 2202.9,1838.0 2191.3,1881.8 1822.5,1913.5" fill="#A3E635" fill-opacity="0.65" />
    <polygon points="2713.1,853.6 2546.8,934.0 2524.4,929.4 2493.4,903.7 2664.8,505.0 2682.8,505.0" fill="#C084FC" fill-opacity="0.65" />
    <polygon points="3439.4,847.8 3593.5,505.0 3720.0,505.0 3720.0,1142.6" fill="#FB7185" fill-opacity="0.65" />
    <polygon points="1892.0,1234.6 2000.6,1330.5 1912.8,1495.0 1728.2,1406.9 1748.6,1296.5" fill="#22D3EE" fill-opacity="0.65" />
    <polygon points="3340.9,1753.8 3208.6,1790.5 3098.3,1616.2 3108.6,1587.1 3248.2,1454.5 3326.3,1476.8 3358.9,1507.1 3346.5,1744.7" fill="#86EFAC" fill-opacity="0.65" />
    <polygon points="1430.6,653.9 1603.3,791.2 1623.4,885.9 1366.2,963.3 1291.6,768.5" fill="#FCD34D" fill-opacity="0.65" />
    <polygon points="2191.3,1881.8 2202.9,1838.0 2426.7,1651.2 2578.3,1683.3 2662.1,2053.0 2202.9,2053.0" fill="#38BDF8" fill-opacity="0.65" />
    <polygon points="3448.9,1855.8 3340.9,1753.8 3346.5,1744.7 3720.0,1574.8 3720.0,1745.2" fill="#38BDF8" fill-opacity="0.65" />
    <polygon points="1808.5,589.4 1603.3,791.2 1430.6,653.9 1422.7,505.0 1813.7,505.0" fill="#A78BFA" fill-opacity="0.65" />
    <polygon points="1082.9,766.2 988.9,864.6 841.2,864.9 801.3,802.4 959.6,659.3" fill="#F472B6" fill-opacity="0.65" />
    <polygon points="598.7,1731.6 655.4,1543.9 836.2,1541.8 1001.3,1585.8 1071.1,1803.4 1070.1,1854.9 1017.2,2053.0 908.1,2053.0" fill="#FB923C" fill-opacity="0.65" />
    <polygon points="1291.6,768.5 1366.2,963.3 1329.6,1042.6 1163.5,999.2 1167.3,775.1" fill="#FACC15" fill-opacity="0.65" />
    <polygon points="2860.8,861.3 2884.9,712.8 3069.4,783.7 3045.5,961.2" fill="#4ADE80" fill-opacity="0.65" />
    <polygon points="1430.6,653.9 1291.6,768.5 1167.3,775.1 1146.8,764.3 1157.2,505.0 1422.7,505.0" fill="#2DD4BF" fill-opacity="0.65" />
    <polygon points="1041.4,1074.4 1163.5,999.2 1329.6,1042.6 1376.5,1191.0 1016.3,1178.6 998.3,1147.5" fill="#60A5FA" fill-opacity="0.65" />
    <polygon points="805.9,1038.2 861.7,1121.4 785.6,1200.4 566.0,1265.7 477.3,1020.8 527.5,982.5" fill="#E879F9" fill-opacity="0.65" />
    <polygon points="1808.5,589.4 1932.7,754.0 1913.0,866.1 1686.8,958.7 1680.0,958.1 1623.4,885.9 1603.3,791.2" fill="#34D399" fill-opacity="0.65" />
    <polygon points="1912.8,1495.0 2000.6,1330.5 2095.6,1330.2 2180.5,1469.1 1968.4,1635.2 1929.1,1593.8" fill="#F87171" fill-opacity="0.65" />
    <polygon points="3439.4,847.8 3320.0,873.5 3189.7,675.4 3220.7,505.0 3593.5,505.0" fill="#818CF8" fill-opacity="0.65" />
    <polygon points="1376.5,1191.0 1392.1,1209.6 1198.9,1440.1 1059.2,1492.0 1016.3,1178.6" fill="#FBBF24" fill-opacity="0.65" />
    <polygon points="2493.4,903.7 2302.6,882.7 2302.5,882.6 2432.4,505.0 2664.8,505.0" fill="#A3E635" fill-opacity="0.65" />
    <polygon points="2674.1,1046.8 2782.9,993.2 2973.8,1143.9 2919.2,1240.0 2712.4,1285.6 2654.0,1238.6" fill="#C084FC" fill-opacity="0.65" />
    <polygon points="2302.5,882.6 2302.6,882.7 2377.6,1163.5 2316.2,1224.2 2183.2,1213.6 2163.7,1159.2 2271.6,883.9" fill="#FB7185" fill-opacity="0.65" />
    <polygon points="3248.2,1454.5 3108.6,1587.1 2958.6,1380.1 2954.6,1312.7 3229.4,1400.3" fill="#22D3EE" fill-opacity="0.65" />
    <polygon points="1912.8,1495.0 1929.1,1593.8 1676.5,1621.8 1633.9,1497.5 1728.2,1406.9" fill="#86EFAC" fill-opacity="0.65" />
    <polygon points="805.9,1038.2 841.2,864.9 988.9,864.6 1041.4,1074.4 998.3,1147.5 861.7,1121.4" fill="#FCD34D" fill-opacity="0.65" />
    <polygon points="3326.3,1476.8 3248.2,1454.5 3229.4,1400.3 3260.1,1132.8 3562.1,1183.6" fill="#38BDF8" fill-opacity="0.65" />
  </g>
  <g>
    <circle cx="460.5" cy="1677.6" r="18" fill="#0F172A" stroke="#FFFFFF" stroke-width="7" />
    <circle cx="1531.2" cy="1874.0" r="18" fill="#0F172A" stroke="#FFFFFF" stroke-width="7" />
    <circle cx="2125.5" cy="1035.2" r="18" fill="#0F172A" stroke="#FFFFFF" stroke-width="7" />
    <circle cx="1974.6" cy="1976.2" r="18" fill="#0F172A" stroke="#FFFFFF" stroke-width="7" />
    <circle cx="1616.9" cy="1339.8" r="18" fill="#0F172A" stroke="#FFFFFF" stroke-width="7" />
    <circle cx="3121.3" cy="1298.3" r="18" fill="#0F172A" stroke="#FFFFFF" stroke-width="7" />
    <circle cx="1891.2" cy="1015.7" r="18" fill="#0F172A" stroke="#FFFFFF" stroke-width="7" />
    <circle cx="2445.6" cy="1266.0" r="18" fill="#0F172A" stroke="#FFFFFF" stroke-width="7" />
    <circle cx="1314.0" cy="1580.2" r="18" fill="#0F172A" stroke="#FFFFFF" stroke-width="7" />
    <circle cx="2538.7" cy="1378.4" r="18" fill="#0F172A" stroke="#FFFFFF" stroke-width="7" />
    <circle cx="388.1" cy="1229.3" r="18" fill="#0F172A" stroke="#FFFFFF" stroke-width="7" />
    <circle cx="3007.3" cy="670.1" r="18" fill="#0F172A" stroke="#FFFFFF" stroke-width="7" />
    <circle cx="2431.1" cy="1052.8" r="18" fill="#0F172A" stroke="#FFFFFF" stroke-width="7" />
    <circle cx="2789.8" cy="800.9" r="18" fill="#0F172A" stroke="#FFFFFF" stroke-width="7" />
    <circle cx="2690.9" cy="944.1" r="18" fill="#0F172A" stroke="#FFFFFF" stroke-width="7" />
    <circle cx="1398.8" cy="1938.3" r="18" fill="#0F172A" stroke="#FFFFFF" stroke-width="7" />
    <circle cx="3432.0" cy="1630.2" r="18" fill="#0F172A" stroke="#FFFFFF" stroke-width="7" />
    <circle cx="866.1" cy="1303.8" r="18" fill="#0F172A" stroke="#FFFFFF" stroke-width="7" />
    <circle cx="2035.7" cy="1180.6" r="18" fill="#0F172A" stroke="#FFFFFF" stroke-width="7" />
    <circle cx="2574.2" cy="1075.9" r="18" fill="#0F172A" stroke="#FFFFFF" stroke-width="7" />
    <circle cx="444.9" cy="1842.4" r="18" fill="#0F172A" stroke="#FFFFFF" stroke-width="7" />
    <circle cx="3175.9" cy="857.3" r="18" fill="#0F172A" stroke="#FFFFFF" stroke-width="7" />
    <circle cx="2958.8" cy="1510.3" r="18" fill="#0F172A" stroke="#FFFFFF" stroke-width="7" />
    <circle cx="431.3" cy="798.7" r="18" fill="#0F172A" stroke="#FFFFFF" stroke-width="7" />
    <circle cx="3350.9" cy="1901.6" r="18" fill="#0F172A" stroke="#FFFFFF" stroke-width="7" />
    <circle cx="2835.5" cy="1851.6" r="18" fill="#0F172A" stroke="#FFFFFF" stroke-width="7" />
    <circle cx="2256.0" cy="1346.2" r="18" fill="#0F172A" stroke="#FFFFFF" stroke-width="7" />
    <circle cx="2057.3" cy="821.3" r="18" fill="#0F172A" stroke="#FFFFFF" stroke-width="7" />
    <circle cx="840.8" cy="674.4" r="18" fill="#0F172A" stroke="#FFFFFF" stroke-width="7" />
    <circle cx="722.0" cy="910.5" r="18" fill="#0F172A" stroke="#FFFFFF" stroke-width="7" />
    <circle cx="3415.4" cy="982.6" r="18" fill="#0F172A" stroke="#FFFFFF" stroke-width="7" />
    <circle cx="641.4" cy="763.0" r="18" fill="#0F172A" stroke="#FFFFFF" stroke-width="7" />
    <circle cx="2135.2" cy="1606.2" r="18" fill="#0F172A" stroke="#FFFFFF" stroke-width="7" />
    <circle cx="1524.3" cy="1612.2" r="18" fill="#0F172A" stroke="#FFFFFF" stroke-width="7" />
    <circle cx="1810.1" cy="1695.2" r="18" fill="#0F172A" stroke="#FFFFFF" stroke-width="7" />
    <circle cx="1758.9" cy="1158.2" r="18" fill="#0F172A" stroke="#FFFFFF" stroke-width="7" />
    <circle cx="624.6" cy="1877.7" r="18" fill="#0F172A" stroke="#FFFFFF" stroke-width="7" />
    <circle cx="642.0" cy="596.8" r="18" fill="#0F172A" stroke="#FFFFFF" stroke-width="7" />
    <circle cx="1378.1" cy="1412.6" r="18" fill="#0F172A" stroke="#FFFFFF" stroke-width="7" />
    <circle cx="1080.0" cy="916.6" r="18" fill="#0F172A" stroke="#FFFFFF" stroke-width="7" />
    <circle cx="738.5" cy="1322.7" r="18" fill="#0F172A" stroke="#FFFFFF" stroke-width="7" />
    <circle cx="1399.7" cy="1774.9" r="18" fill="#0F172A" stroke="#FFFFFF" stroke-width="7" />
    <circle cx="263.4" cy="927.4" r="18" fill="#0F172A" stroke="#FFFFFF" stroke-width="7" />
    <circle cx="1659.2" cy="1933.1" r="18" fill="#0F172A" stroke="#FFFFFF" stroke-width="7" />
    <circle cx="3028.6" cy="1776.8" r="18" fill="#0F172A" stroke="#FFFFFF" stroke-width="7" />
    <circle cx="3467.3" cy="1413.5" r="18" fill="#0F172A" stroke="#FFFFFF" stroke-width="7" />
    <circle cx="2840.6" cy="1435.1" r="18" fill="#0F172A" stroke="#FFFFFF" stroke-width="7" />
    <circle cx="2259.4" cy="673.9" r="18" fill="#0F172A" stroke="#FFFFFF" stroke-width="7" />
    <circle cx="1071.3" cy="616.2" r="18" fill="#0F172A" stroke="#FFFFFF" stroke-width="7" />
    <circle cx="3547.7" cy="1899.5" r="18" fill="#0F172A" stroke="#FFFFFF" stroke-width="7" />
    <circle cx="2878.9" cy="952.7" r="18" fill="#0F172A" stroke="#FFFFFF" stroke-width="7" />
    <circle cx="1991.2" cy="625.0" r="18" fill="#0F172A" stroke="#FFFFFF" stroke-width="7" />
    <circle cx="1475.1" cy="1023.8" r="18" fill="#0F172A" stroke="#FFFFFF" stroke-width="7" />
    <circle cx="1961.7" cy="1825.7" r="18" fill="#0F172A" stroke="#FFFFFF" stroke-width="7" />
    <circle cx="2628.4" cy="814.9" r="18" fill="#0F172A" stroke="#FFFFFF" stroke-width="7" />
    <circle cx="3575.3" cy="830.5" r="18" fill="#0F172A" stroke="#FFFFFF" stroke-width="7" />
    <circle cx="1856.2" cy="1383.9" r="18" fill="#0F172A" stroke="#FFFFFF" stroke-width="7" />
    <circle cx="3273.3" cy="1622.0" r="18" fill="#0F172A" stroke="#FFFFFF" stroke-width="7" />
    <circle cx="1423.7" cy="852.8" r="18" fill="#0F172A" stroke="#FFFFFF" stroke-width="7" />
    <circle cx="2418.8" cy="1946.0" r="18" fill="#0F172A" stroke="#FFFFFF" stroke-width="7" />
    <circle cx="3489.0" cy="1755.4" r="18" fill="#0F172A" stroke="#FFFFFF" stroke-width="7" />
    <circle cx="1622.8" cy="602.2" r="18" fill="#0F172A" stroke="#FFFFFF" stroke-width="7" />
    <circle cx="932.7" cy="776.0" r="18" fill="#0F172A" stroke="#FFFFFF" stroke-width="7" />
    <circle cx="743.7" cy="1763.1" r="18" fill="#0F172A" stroke="#FFFFFF" stroke-width="7" />
    <circle cx="1249.7" cy="919.5" r="18" fill="#0F172A" stroke="#FFFFFF" stroke-width="7" />
    <circle cx="2947.2" cy="826.5" r="18" fill="#0F172A" stroke="#FFFFFF" stroke-width="7" />
    <circle cx="1233.9" cy="622.7" r="18" fill="#0F172A" stroke="#FFFFFF" stroke-width="7" />
    <circle cx="1199.7" cy="1110.8" r="18" fill="#0F172A" stroke="#FFFFFF" stroke-width="7" />
    <circle cx="679.3" cy="1123.8" r="18" fill="#0F172A" stroke="#FFFFFF" stroke-width="7" />
    <circle cx="1792.6" cy="774.8" r="18" fill="#0F172A" stroke="#FFFFFF" stroke-width="7" />
    <circle cx="2036.6" cy="1480.3" r="18" fill="#0F172A" stroke="#FFFFFF" stroke-width="7" />
    <circle cx="3362.2" cy="734.7" r="18" fill="#0F172A" stroke="#FFFFFF" stroke-width="7" />
    <circle cx="1194.6" cy="1258.8" r="18" fill="#0F172A" stroke="#FFFFFF" stroke-width="7" />
    <circle cx="2464.9" cy="744.6" r="18" fill="#0F172A" stroke="#FFFFFF" stroke-width="7" />
    <circle cx="2765.8" cy="1096.0" r="18" fill="#0F172A" stroke="#FFFFFF" stroke-width="7" />
    <circle cx="2276.1" cy="1094.2" r="18" fill="#0F172A" stroke="#FFFFFF" stroke-width="7" />
    <circle cx="3082.2" cy="1420.9" r="18" fill="#0F172A" stroke="#FFFFFF" stroke-width="7" />
    <circle cx="1790.8" cy="1520.8" r="18" fill="#0F172A" stroke="#FFFFFF" stroke-width="7" />
    <circle cx="933.0" cy="953.5" r="18" fill="#0F172A" stroke="#FFFFFF" stroke-width="7" />
    <circle cx="3357.8" cy="1325.5" r="18" fill="#0F172A" stroke="#FFFFFF" stroke-width="7" />
  </g>
  <g font-family="Arial, sans-serif" font-size="47" fill="#64748B"><text x="227" y="2205">Each region contains all points closest to its dark site marker.</text><text x="3083" y="2205">sites: 80</text></g>
</svg>
